<?xml version="1.0" encoding="utf-8" standalone="no"?>
<!DOCTYPE svg PUBLIC "-//W3C//DTD SVG 1.1//EN"
  "http://www.w3.org/Graphics/SVG/1.1/DTD/svg11.dtd">
<svg xmlns:xlink="http://www.w3.org/1999/xlink" width="848.951406pt" height="488.074219pt" viewBox="0 0 848.951406 488.074219" xmlns="http://www.w3.org/2000/svg" version="1.1">
 <metadata>
  <rdf:RDF xmlns:dc="http://purl.org/dc/elements/1.1/" xmlns:cc="http://creativecommons.org/ns#" xmlns:rdf="http://www.w3.org/1999/02/22-rdf-syntax-ns#">
   <cc:Work>
    <dc:type rdf:resource="http://purl.org/dc/dcmitype/StillImage"/>
    <dc:date>2025-12-14T15:51:01.169668</dc:date>
    <dc:format>image/svg+xml</dc:format>
    <dc:creator>
     <cc:Agent>
      <dc:title>Matplotlib v3.10.7, https://matplotlib.org/</dc:title>
     </cc:Agent>
    </dc:creator>
   </cc:Work>
  </rdf:RDF>
 </metadata>
 <defs>
  <style type="text/css">*{stroke-linejoin: round; stroke-linecap: butt}</style>
 </defs>
 <g id="figure_1">
  <g id="patch_1">
   <path d="M 0 488.074219 
L 848.951406 488.074219 
L 848.951406 0 
L 0 0 
z
" style="fill: #ffffff"/>
  </g>
  <g id="axes_1">
   <g id="patch_2">
    <path d="M 53.081406 446.34 
L 841.751406 446.34 
L 841.751406 22.32 
L 53.081406 22.32 
z
" style="fill: #ffffff"/>
   </g>
   <g id="matplotlib.axis_1">
    <g id="xtick_1">
     <g id="line2d_1">
      <path d="M 88.930043 446.34 
L 88.930043 22.32 
" clip-path="url(#p9ac9c3a14d)" style="fill: none; stroke: #cccccc; stroke-linecap: round"/>
     </g>
     <g id="text_1">
      <!-- 6 -->
      <g style="fill: #262626" transform="translate(85.871527 463.713594) scale(0.11 -0.11)">
       <defs>
        <path id="ArialMT-36" d="M 3184 3459 
L 2625 3416 
Q 2550 3747 2413 3897 
Q 2184 4138 1850 4138 
Q 1581 4138 1378 3988 
Q 1113 3794 959 3422 
Q 806 3050 800 2363 
Q 1003 2672 1297 2822 
Q 1591 2972 1913 2972 
Q 2475 2972 2870 2558 
Q 3266 2144 3266 1488 
Q 3266 1056 3080 686 
Q 2894 316 2569 119 
Q 2244 -78 1831 -78 
Q 1128 -78 684 439 
Q 241 956 241 2144 
Q 241 3472 731 4075 
Q 1159 4600 1884 4600 
Q 2425 4600 2770 4297 
Q 3116 3994 3184 3459 
z
M 888 1484 
Q 888 1194 1011 928 
Q 1134 663 1356 523 
Q 1578 384 1822 384 
Q 2178 384 2434 671 
Q 2691 959 2691 1453 
Q 2691 1928 2437 2201 
Q 2184 2475 1800 2475 
Q 1419 2475 1153 2201 
Q 888 1928 888 1484 
z
" transform="scale(0.015625)"/>
       </defs>
       <use xlink:href="#ArialMT-36"/>
      </g>
     </g>
    </g>
    <g id="xtick_2">
     <g id="line2d_2">
      <path d="M 208.425497 446.34 
L 208.425497 22.32 
" clip-path="url(#p9ac9c3a14d)" style="fill: none; stroke: #cccccc; stroke-linecap: round"/>
     </g>
     <g id="text_2">
      <!-- 7 -->
      <g style="fill: #262626" transform="translate(205.366982 463.713594) scale(0.11 -0.11)">
       <defs>
        <path id="ArialMT-37" d="M 303 3981 
L 303 4522 
L 3269 4522 
L 3269 4084 
Q 2831 3619 2401 2847 
Q 1972 2075 1738 1259 
Q 1569 684 1522 0 
L 944 0 
Q 953 541 1156 1306 
Q 1359 2072 1739 2783 
Q 2119 3494 2547 3981 
L 303 3981 
z
" transform="scale(0.015625)"/>
       </defs>
       <use xlink:href="#ArialMT-37"/>
      </g>
     </g>
    </g>
    <g id="xtick_3">
     <g id="line2d_3">
      <path d="M 327.920952 446.34 
L 327.920952 22.32 
" clip-path="url(#p9ac9c3a14d)" style="fill: none; stroke: #cccccc; stroke-linecap: round"/>
     </g>
     <g id="text_3">
      <!-- 8 -->
      <g style="fill: #262626" transform="translate(324.862436 463.713594) scale(0.11 -0.11)">
       <defs>
        <path id="ArialMT-38" d="M 1131 2484 
Q 781 2613 612 2850 
Q 444 3088 444 3419 
Q 444 3919 803 4259 
Q 1163 4600 1759 4600 
Q 2359 4600 2725 4251 
Q 3091 3903 3091 3403 
Q 3091 3084 2923 2848 
Q 2756 2613 2416 2484 
Q 2838 2347 3058 2040 
Q 3278 1734 3278 1309 
Q 3278 722 2862 322 
Q 2447 -78 1769 -78 
Q 1091 -78 675 323 
Q 259 725 259 1325 
Q 259 1772 486 2073 
Q 713 2375 1131 2484 
z
M 1019 3438 
Q 1019 3113 1228 2906 
Q 1438 2700 1772 2700 
Q 2097 2700 2305 2904 
Q 2513 3109 2513 3406 
Q 2513 3716 2298 3927 
Q 2084 4138 1766 4138 
Q 1444 4138 1231 3931 
Q 1019 3725 1019 3438 
z
M 838 1322 
Q 838 1081 952 856 
Q 1066 631 1291 507 
Q 1516 384 1775 384 
Q 2178 384 2440 643 
Q 2703 903 2703 1303 
Q 2703 1709 2433 1975 
Q 2163 2241 1756 2241 
Q 1359 2241 1098 1978 
Q 838 1716 838 1322 
z
" transform="scale(0.015625)"/>
       </defs>
       <use xlink:href="#ArialMT-38"/>
      </g>
     </g>
    </g>
    <g id="xtick_4">
     <g id="line2d_4">
      <path d="M 447.416406 446.34 
L 447.416406 22.32 
" clip-path="url(#p9ac9c3a14d)" style="fill: none; stroke: #cccccc; stroke-linecap: round"/>
     </g>
     <g id="text_4">
      <!-- 9 -->
      <g style="fill: #262626" transform="translate(444.357891 463.713594) scale(0.11 -0.11)">
       <defs>
        <path id="ArialMT-39" d="M 350 1059 
L 891 1109 
Q 959 728 1153 556 
Q 1347 384 1650 384 
Q 1909 384 2104 503 
Q 2300 622 2425 820 
Q 2550 1019 2634 1356 
Q 2719 1694 2719 2044 
Q 2719 2081 2716 2156 
Q 2547 1888 2255 1720 
Q 1963 1553 1622 1553 
Q 1053 1553 659 1965 
Q 266 2378 266 3053 
Q 266 3750 677 4175 
Q 1088 4600 1706 4600 
Q 2153 4600 2523 4359 
Q 2894 4119 3086 3673 
Q 3278 3228 3278 2384 
Q 3278 1506 3087 986 
Q 2897 466 2520 194 
Q 2144 -78 1638 -78 
Q 1100 -78 759 220 
Q 419 519 350 1059 
z
M 2653 3081 
Q 2653 3566 2395 3850 
Q 2138 4134 1775 4134 
Q 1400 4134 1122 3828 
Q 844 3522 844 3034 
Q 844 2597 1108 2323 
Q 1372 2050 1759 2050 
Q 2150 2050 2401 2323 
Q 2653 2597 2653 3081 
z
" transform="scale(0.015625)"/>
       </defs>
       <use xlink:href="#ArialMT-39"/>
      </g>
     </g>
    </g>
    <g id="xtick_5">
     <g id="line2d_5">
      <path d="M 566.911861 446.34 
L 566.911861 22.32 
" clip-path="url(#p9ac9c3a14d)" style="fill: none; stroke: #cccccc; stroke-linecap: round"/>
     </g>
     <g id="text_5">
      <!-- 10 -->
      <g style="fill: #262626" transform="translate(560.79483 463.713594) scale(0.11 -0.11)">
       <defs>
        <path id="ArialMT-31" d="M 2384 0 
L 1822 0 
L 1822 3584 
Q 1619 3391 1289 3197 
Q 959 3003 697 2906 
L 697 3450 
Q 1169 3672 1522 3987 
Q 1875 4303 2022 4600 
L 2384 4600 
L 2384 0 
z
" transform="scale(0.015625)"/>
        <path id="ArialMT-30" d="M 266 2259 
Q 266 3072 433 3567 
Q 600 4063 929 4331 
Q 1259 4600 1759 4600 
Q 2128 4600 2406 4451 
Q 2684 4303 2865 4023 
Q 3047 3744 3150 3342 
Q 3253 2941 3253 2259 
Q 3253 1453 3087 958 
Q 2922 463 2592 192 
Q 2263 -78 1759 -78 
Q 1097 -78 719 397 
Q 266 969 266 2259 
z
M 844 2259 
Q 844 1131 1108 757 
Q 1372 384 1759 384 
Q 2147 384 2411 759 
Q 2675 1134 2675 2259 
Q 2675 3391 2411 3762 
Q 2147 4134 1753 4134 
Q 1366 4134 1134 3806 
Q 844 3388 844 2259 
z
" transform="scale(0.015625)"/>
       </defs>
       <use xlink:href="#ArialMT-31"/>
       <use xlink:href="#ArialMT-30" transform="translate(55.615234 0)"/>
      </g>
     </g>
    </g>
    <g id="xtick_6">
     <g id="line2d_6">
      <path d="M 686.407315 446.34 
L 686.407315 22.32 
" clip-path="url(#p9ac9c3a14d)" style="fill: none; stroke: #cccccc; stroke-linecap: round"/>
     </g>
     <g id="text_6">
      <!-- 11 -->
      <g style="fill: #262626" transform="translate(680.695909 463.713594) scale(0.11 -0.11)">
       <use xlink:href="#ArialMT-31"/>
       <use xlink:href="#ArialMT-31" transform="translate(48.240234 0)"/>
      </g>
     </g>
    </g>
    <g id="xtick_7">
     <g id="line2d_7">
      <path d="M 805.90277 446.34 
L 805.90277 22.32 
" clip-path="url(#p9ac9c3a14d)" style="fill: none; stroke: #cccccc; stroke-linecap: round"/>
     </g>
     <g id="text_7">
      <!-- 12 -->
      <g style="fill: #262626" transform="translate(799.785739 463.713594) scale(0.11 -0.11)">
       <defs>
        <path id="ArialMT-32" d="M 3222 541 
L 3222 0 
L 194 0 
Q 188 203 259 391 
Q 375 700 629 1000 
Q 884 1300 1366 1694 
Q 2113 2306 2375 2664 
Q 2638 3022 2638 3341 
Q 2638 3675 2398 3904 
Q 2159 4134 1775 4134 
Q 1369 4134 1125 3890 
Q 881 3647 878 3216 
L 300 3275 
Q 359 3922 746 4261 
Q 1134 4600 1788 4600 
Q 2447 4600 2831 4234 
Q 3216 3869 3216 3328 
Q 3216 3053 3103 2787 
Q 2991 2522 2730 2228 
Q 2469 1934 1863 1422 
Q 1356 997 1212 845 
Q 1069 694 975 541 
L 3222 541 
z
" transform="scale(0.015625)"/>
       </defs>
       <use xlink:href="#ArialMT-31"/>
       <use xlink:href="#ArialMT-32" transform="translate(55.615234 0)"/>
      </g>
     </g>
    </g>
    <g id="text_8">
     <!-- $d$ -->
     <g style="fill: #262626" transform="translate(443.576406 478.489219) scale(0.12 -0.12)">
      <defs>
       <path id="DejaVuSans-Oblique-64" d="M 2675 525 
Q 2444 222 2128 65 
Q 1813 -91 1428 -91 
Q 903 -91 598 267 
Q 294 625 294 1247 
Q 294 1766 478 2236 
Q 663 2706 1013 3078 
Q 1244 3325 1534 3454 
Q 1825 3584 2144 3584 
Q 2481 3584 2739 3421 
Q 2997 3259 3138 2956 
L 3513 4863 
L 4091 4863 
L 3144 0 
L 2566 0 
L 2675 525 
z
M 891 1350 
Q 891 897 1095 644 
Q 1300 391 1663 391 
Q 1931 391 2161 520 
Q 2391 650 2566 903 
Q 2750 1166 2856 1509 
Q 2963 1853 2963 2188 
Q 2963 2622 2758 2865 
Q 2553 3109 2194 3109 
Q 1922 3109 1687 2981 
Q 1453 2853 1288 2613 
Q 1106 2353 998 2009 
Q 891 1666 891 1350 
z
" transform="scale(0.015625)"/>
      </defs>
      <use xlink:href="#DejaVuSans-Oblique-64" transform="translate(0 0.015625)"/>
     </g>
    </g>
   </g>
   <g id="matplotlib.axis_2">
    <g id="ytick_1">
     <g id="line2d_8">
      <path d="M 53.081406 441.720475 
L 841.751406 441.720475 
" clip-path="url(#p9ac9c3a14d)" style="fill: none; stroke: #cccccc; stroke-linecap: round"/>
     </g>
     <g id="text_9">
      <!-- 2.25 -->
      <g style="fill: #262626" transform="translate(22.174375 445.657272) scale(0.11 -0.11)">
       <defs>
        <path id="ArialMT-2e" d="M 581 0 
L 581 641 
L 1222 641 
L 1222 0 
L 581 0 
z
" transform="scale(0.015625)"/>
        <path id="ArialMT-35" d="M 266 1200 
L 856 1250 
Q 922 819 1161 601 
Q 1400 384 1738 384 
Q 2144 384 2425 690 
Q 2706 997 2706 1503 
Q 2706 1984 2436 2262 
Q 2166 2541 1728 2541 
Q 1456 2541 1237 2417 
Q 1019 2294 894 2097 
L 366 2166 
L 809 4519 
L 3088 4519 
L 3088 3981 
L 1259 3981 
L 1013 2750 
Q 1425 3038 1878 3038 
Q 2478 3038 2890 2622 
Q 3303 2206 3303 1553 
Q 3303 931 2941 478 
Q 2500 -78 1738 -78 
Q 1113 -78 717 272 
Q 322 622 266 1200 
z
" transform="scale(0.015625)"/>
       </defs>
       <use xlink:href="#ArialMT-32"/>
       <use xlink:href="#ArialMT-2e" transform="translate(55.615234 0)"/>
       <use xlink:href="#ArialMT-32" transform="translate(83.398438 0)"/>
       <use xlink:href="#ArialMT-35" transform="translate(139.013672 0)"/>
      </g>
     </g>
    </g>
    <g id="ytick_2">
     <g id="line2d_9">
      <path d="M 53.081406 393.388973 
L 841.751406 393.388973 
" clip-path="url(#p9ac9c3a14d)" style="fill: none; stroke: #cccccc; stroke-linecap: round"/>
     </g>
     <g id="text_10">
      <!-- 2.50 -->
      <g style="fill: #262626" transform="translate(22.174375 397.32577) scale(0.11 -0.11)">
       <use xlink:href="#ArialMT-32"/>
       <use xlink:href="#ArialMT-2e" transform="translate(55.615234 0)"/>
       <use xlink:href="#ArialMT-35" transform="translate(83.398438 0)"/>
       <use xlink:href="#ArialMT-30" transform="translate(139.013672 0)"/>
      </g>
     </g>
    </g>
    <g id="ytick_3">
     <g id="line2d_10">
      <path d="M 53.081406 345.057471 
L 841.751406 345.057471 
" clip-path="url(#p9ac9c3a14d)" style="fill: none; stroke: #cccccc; stroke-linecap: round"/>
     </g>
     <g id="text_11">
      <!-- 2.75 -->
      <g style="fill: #262626" transform="translate(22.174375 348.994268) scale(0.11 -0.11)">
       <use xlink:href="#ArialMT-32"/>
       <use xlink:href="#ArialMT-2e" transform="translate(55.615234 0)"/>
       <use xlink:href="#ArialMT-37" transform="translate(83.398438 0)"/>
       <use xlink:href="#ArialMT-35" transform="translate(139.013672 0)"/>
      </g>
     </g>
    </g>
    <g id="ytick_4">
     <g id="line2d_11">
      <path d="M 53.081406 296.725969 
L 841.751406 296.725969 
" clip-path="url(#p9ac9c3a14d)" style="fill: none; stroke: #cccccc; stroke-linecap: round"/>
     </g>
     <g id="text_12">
      <!-- 3.00 -->
      <g style="fill: #262626" transform="translate(22.174375 300.662766) scale(0.11 -0.11)">
       <defs>
        <path id="ArialMT-33" d="M 269 1209 
L 831 1284 
Q 928 806 1161 595 
Q 1394 384 1728 384 
Q 2125 384 2398 659 
Q 2672 934 2672 1341 
Q 2672 1728 2419 1979 
Q 2166 2231 1775 2231 
Q 1616 2231 1378 2169 
L 1441 2663 
Q 1497 2656 1531 2656 
Q 1891 2656 2178 2843 
Q 2466 3031 2466 3422 
Q 2466 3731 2256 3934 
Q 2047 4138 1716 4138 
Q 1388 4138 1169 3931 
Q 950 3725 888 3313 
L 325 3413 
Q 428 3978 793 4289 
Q 1159 4600 1703 4600 
Q 2078 4600 2393 4439 
Q 2709 4278 2876 4000 
Q 3044 3722 3044 3409 
Q 3044 3113 2884 2869 
Q 2725 2625 2413 2481 
Q 2819 2388 3044 2092 
Q 3269 1797 3269 1353 
Q 3269 753 2831 336 
Q 2394 -81 1725 -81 
Q 1122 -81 723 278 
Q 325 638 269 1209 
z
" transform="scale(0.015625)"/>
       </defs>
       <use xlink:href="#ArialMT-33"/>
       <use xlink:href="#ArialMT-2e" transform="translate(55.615234 0)"/>
       <use xlink:href="#ArialMT-30" transform="translate(83.398438 0)"/>
       <use xlink:href="#ArialMT-30" transform="translate(139.013672 0)"/>
      </g>
     </g>
    </g>
    <g id="ytick_5">
     <g id="line2d_12">
      <path d="M 53.081406 248.394467 
L 841.751406 248.394467 
" clip-path="url(#p9ac9c3a14d)" style="fill: none; stroke: #cccccc; stroke-linecap: round"/>
     </g>
     <g id="text_13">
      <!-- 3.25 -->
      <g style="fill: #262626" transform="translate(22.174375 252.331264) scale(0.11 -0.11)">
       <use xlink:href="#ArialMT-33"/>
       <use xlink:href="#ArialMT-2e" transform="translate(55.615234 0)"/>
       <use xlink:href="#ArialMT-32" transform="translate(83.398438 0)"/>
       <use xlink:href="#ArialMT-35" transform="translate(139.013672 0)"/>
      </g>
     </g>
    </g>
    <g id="ytick_6">
     <g id="line2d_13">
      <path d="M 53.081406 200.062965 
L 841.751406 200.062965 
" clip-path="url(#p9ac9c3a14d)" style="fill: none; stroke: #cccccc; stroke-linecap: round"/>
     </g>
     <g id="text_14">
      <!-- 3.50 -->
      <g style="fill: #262626" transform="translate(22.174375 203.999762) scale(0.11 -0.11)">
       <use xlink:href="#ArialMT-33"/>
       <use xlink:href="#ArialMT-2e" transform="translate(55.615234 0)"/>
       <use xlink:href="#ArialMT-35" transform="translate(83.398438 0)"/>
       <use xlink:href="#ArialMT-30" transform="translate(139.013672 0)"/>
      </g>
     </g>
    </g>
    <g id="ytick_7">
     <g id="line2d_14">
      <path d="M 53.081406 151.731463 
L 841.751406 151.731463 
" clip-path="url(#p9ac9c3a14d)" style="fill: none; stroke: #cccccc; stroke-linecap: round"/>
     </g>
     <g id="text_15">
      <!-- 3.75 -->
      <g style="fill: #262626" transform="translate(22.174375 155.66826) scale(0.11 -0.11)">
       <use xlink:href="#ArialMT-33"/>
       <use xlink:href="#ArialMT-2e" transform="translate(55.615234 0)"/>
       <use xlink:href="#ArialMT-37" transform="translate(83.398438 0)"/>
       <use xlink:href="#ArialMT-35" transform="translate(139.013672 0)"/>
      </g>
     </g>
    </g>
    <g id="ytick_8">
     <g id="line2d_15">
      <path d="M 53.081406 103.399961 
L 841.751406 103.399961 
" clip-path="url(#p9ac9c3a14d)" style="fill: none; stroke: #cccccc; stroke-linecap: round"/>
     </g>
     <g id="text_16">
      <!-- 4.00 -->
      <g style="fill: #262626" transform="translate(22.174375 107.336758) scale(0.11 -0.11)">
       <defs>
        <path id="ArialMT-34" d="M 2069 0 
L 2069 1097 
L 81 1097 
L 81 1613 
L 2172 4581 
L 2631 4581 
L 2631 1613 
L 3250 1613 
L 3250 1097 
L 2631 1097 
L 2631 0 
L 2069 0 
z
M 2069 1613 
L 2069 3678 
L 634 1613 
L 2069 1613 
z
" transform="scale(0.015625)"/>
       </defs>
       <use xlink:href="#ArialMT-34"/>
       <use xlink:href="#ArialMT-2e" transform="translate(55.615234 0)"/>
       <use xlink:href="#ArialMT-30" transform="translate(83.398438 0)"/>
       <use xlink:href="#ArialMT-30" transform="translate(139.013672 0)"/>
      </g>
     </g>
    </g>
    <g id="ytick_9">
     <g id="line2d_16">
      <path d="M 53.081406 55.068459 
L 841.751406 55.068459 
" clip-path="url(#p9ac9c3a14d)" style="fill: none; stroke: #cccccc; stroke-linecap: round"/>
     </g>
     <g id="text_17">
      <!-- 4.25 -->
      <g style="fill: #262626" transform="translate(22.174375 59.005256) scale(0.11 -0.11)">
       <use xlink:href="#ArialMT-34"/>
       <use xlink:href="#ArialMT-2e" transform="translate(55.615234 0)"/>
       <use xlink:href="#ArialMT-32" transform="translate(83.398438 0)"/>
       <use xlink:href="#ArialMT-35" transform="translate(139.013672 0)"/>
      </g>
     </g>
    </g>
    <g id="text_18">
     <!-- $B_f$ -->
     <g style="fill: #262626" transform="translate(15.789375 240.09) rotate(-90) scale(0.12 -0.12)">
      <defs>
       <path id="DejaVuSans-Oblique-42" d="M 1081 4666 
L 2694 4666 
Q 3350 4666 3675 4422 
Q 4000 4178 4000 3688 
Q 4000 3238 3720 2911 
Q 3441 2584 2988 2516 
Q 3375 2428 3569 2181 
Q 3763 1934 3763 1522 
Q 3763 819 3242 409 
Q 2722 0 1819 0 
L 172 0 
L 1081 4666 
z
M 1234 2228 
L 903 519 
L 1919 519 
Q 2491 519 2800 781 
Q 3109 1044 3109 1522 
Q 3109 1891 2904 2059 
Q 2700 2228 2247 2228 
L 1234 2228 
z
M 1606 4147 
L 1331 2741 
L 2272 2741 
Q 2775 2741 3058 2959 
Q 3341 3178 3341 3566 
Q 3341 3869 3150 4008 
Q 2959 4147 2541 4147 
L 1606 4147 
z
" transform="scale(0.015625)"/>
       <path id="DejaVuSans-Oblique-66" d="M 3059 4863 
L 2969 4384 
L 2419 4384 
Q 2106 4384 1964 4261 
Q 1822 4138 1753 3809 
L 1691 3500 
L 2638 3500 
L 2553 3053 
L 1606 3053 
L 1013 0 
L 434 0 
L 1031 3053 
L 481 3053 
L 563 3500 
L 1113 3500 
L 1159 3744 
Q 1278 4363 1576 4613 
Q 1875 4863 2516 4863 
L 3059 4863 
z
" transform="scale(0.015625)"/>
      </defs>
      <use xlink:href="#DejaVuSans-Oblique-42" transform="translate(0 0.09375)"/>
      <use xlink:href="#DejaVuSans-Oblique-66" transform="translate(68.603516 -16.3125) scale(0.7)"/>
     </g>
    </g>
   </g>
   <g id="FillBetweenPolyCollection_1"/>
   <g id="FillBetweenPolyCollection_2"/>
   <g id="FillBetweenPolyCollection_3"/>
   <g id="FillBetweenPolyCollection_4"/>
   <g id="FillBetweenPolyCollection_5"/>
   <g id="FillBetweenPolyCollection_6"/>
   <g id="line2d_17">
    <path d="M 88.930043 41.593636 
L 327.920952 179.087093 
L 566.911861 319.712431 
L 805.90277 399.672068 
" clip-path="url(#p9ac9c3a14d)" style="fill: none; stroke: #4c72b0; stroke-width: 1.5; stroke-linecap: round"/>
    <defs>
     <path id="m7c75d58a25" d="M 0 3 
C 0.795609 3 1.55874 2.683901 2.12132 2.12132 
C 2.683901 1.55874 3 0.795609 3 0 
C 3 -0.795609 2.683901 -1.55874 2.12132 -2.12132 
C 1.55874 -2.683901 0.795609 -3 0 -3 
C -0.795609 -3 -1.55874 -2.683901 -2.12132 -2.12132 
C -2.683901 -1.55874 -3 -0.795609 -3 0 
C -3 0.795609 -2.683901 1.55874 -2.12132 2.12132 
C -1.55874 2.683901 -0.795609 3 0 3 
z
" style="stroke: #ffffff; stroke-width: 0.75"/>
    </defs>
    <g clip-path="url(#p9ac9c3a14d)">
     <use xlink:href="#m7c75d58a25" x="88.930043" y="41.593636" style="fill: #4c72b0; stroke: #ffffff; stroke-width: 0.75"/>
     <use xlink:href="#m7c75d58a25" x="327.920952" y="179.087093" style="fill: #4c72b0; stroke: #ffffff; stroke-width: 0.75"/>
     <use xlink:href="#m7c75d58a25" x="566.911861" y="319.712431" style="fill: #4c72b0; stroke: #ffffff; stroke-width: 0.75"/>
     <use xlink:href="#m7c75d58a25" x="805.90277" y="399.672068" style="fill: #4c72b0; stroke: #ffffff; stroke-width: 0.75"/>
    </g>
   </g>
   <g id="line2d_18">
    <path d="M 88.930043 64.676762 
L 327.920952 155.134001 
L 566.911861 314.260638 
L 805.90277 404.195897 
" clip-path="url(#p9ac9c3a14d)" style="fill: none; stroke: #dd8452; stroke-width: 1.5; stroke-linecap: round"/>
    <defs>
     <path id="m0e73e129db" d="M 0 3 
C 0.795609 3 1.55874 2.683901 2.12132 2.12132 
C 2.683901 1.55874 3 0.795609 3 0 
C 3 -0.795609 2.683901 -1.55874 2.12132 -2.12132 
C 1.55874 -2.683901 0.795609 -3 0 -3 
C -0.795609 -3 -1.55874 -2.683901 -2.12132 -2.12132 
C -2.683901 -1.55874 -3 -0.795609 -3 0 
C -3 0.795609 -2.683901 1.55874 -2.12132 2.12132 
C -1.55874 2.683901 -0.795609 3 0 3 
z
" style="stroke: #ffffff; stroke-width: 0.75"/>
    </defs>
    <g clip-path="url(#p9ac9c3a14d)">
     <use xlink:href="#m0e73e129db" x="88.930043" y="64.676762" style="fill: #dd8452; stroke: #ffffff; stroke-width: 0.75"/>
     <use xlink:href="#m0e73e129db" x="327.920952" y="155.134001" style="fill: #dd8452; stroke: #ffffff; stroke-width: 0.75"/>
     <use xlink:href="#m0e73e129db" x="566.911861" y="314.260638" style="fill: #dd8452; stroke: #ffffff; stroke-width: 0.75"/>
     <use xlink:href="#m0e73e129db" x="805.90277" y="404.195897" style="fill: #dd8452; stroke: #ffffff; stroke-width: 0.75"/>
    </g>
   </g>
   <g id="line2d_19">
    <path d="M 88.930043 43.855551 
L 327.920952 129.595635 
L 566.911861 302.796406 
L 805.90277 396.675515 
" clip-path="url(#p9ac9c3a14d)" style="fill: none; stroke: #55a868; stroke-width: 1.5; stroke-linecap: round"/>
    <defs>
     <path id="m3dd06fda0f" d="M 0 3 
C 0.795609 3 1.55874 2.683901 2.12132 2.12132 
C 2.683901 1.55874 3 0.795609 3 0 
C 3 -0.795609 2.683901 -1.55874 2.12132 -2.12132 
C 1.55874 -2.683901 0.795609 -3 0 -3 
C -0.795609 -3 -1.55874 -2.683901 -2.12132 -2.12132 
C -2.683901 -1.55874 -3 -0.795609 -3 0 
C -3 0.795609 -2.683901 1.55874 -2.12132 2.12132 
C -1.55874 2.683901 -0.795609 3 0 3 
z
" style="stroke: #ffffff; stroke-width: 0.75"/>
    </defs>
    <g clip-path="url(#p9ac9c3a14d)">
     <use xlink:href="#m3dd06fda0f" x="88.930043" y="43.855551" style="fill: #55a868; stroke: #ffffff; stroke-width: 0.75"/>
     <use xlink:href="#m3dd06fda0f" x="327.920952" y="129.595635" style="fill: #55a868; stroke: #ffffff; stroke-width: 0.75"/>
     <use xlink:href="#m3dd06fda0f" x="566.911861" y="302.796406" style="fill: #55a868; stroke: #ffffff; stroke-width: 0.75"/>
     <use xlink:href="#m3dd06fda0f" x="805.90277" y="396.675515" style="fill: #55a868; stroke: #ffffff; stroke-width: 0.75"/>
    </g>
   </g>
   <g id="line2d_20">
    <path d="M 88.930043 64.386773 
L 327.920952 283.038488 
L 566.911861 396.984837 
L 805.90277 427.066364 
" clip-path="url(#p9ac9c3a14d)" style="fill: none; stroke: #c44e52; stroke-width: 1.5; stroke-linecap: round"/>
    <defs>
     <path id="ma1863d3db1" d="M 0 3 
C 0.795609 3 1.55874 2.683901 2.12132 2.12132 
C 2.683901 1.55874 3 0.795609 3 0 
C 3 -0.795609 2.683901 -1.55874 2.12132 -2.12132 
C 1.55874 -2.683901 0.795609 -3 0 -3 
C -0.795609 -3 -1.55874 -2.683901 -2.12132 -2.12132 
C -2.683901 -1.55874 -3 -0.795609 -3 0 
C -3 0.795609 -2.683901 1.55874 -2.12132 2.12132 
C -1.55874 2.683901 -0.795609 3 0 3 
z
" style="stroke: #ffffff; stroke-width: 0.75"/>
    </defs>
    <g clip-path="url(#p9ac9c3a14d)">
     <use xlink:href="#ma1863d3db1" x="88.930043" y="64.386773" style="fill: #c44e52; stroke: #ffffff; stroke-width: 0.75"/>
     <use xlink:href="#ma1863d3db1" x="327.920952" y="283.038488" style="fill: #c44e52; stroke: #ffffff; stroke-width: 0.75"/>
     <use xlink:href="#ma1863d3db1" x="566.911861" y="396.984837" style="fill: #c44e52; stroke: #ffffff; stroke-width: 0.75"/>
     <use xlink:href="#ma1863d3db1" x="805.90277" y="427.066364" style="fill: #c44e52; stroke: #ffffff; stroke-width: 0.75"/>
    </g>
   </g>
   <g id="line2d_21">
    <path d="M 88.930043 52.729214 
L 327.920952 146.43433 
L 566.911861 220.265533 
L 805.90277 255.837518 
" clip-path="url(#p9ac9c3a14d)" style="fill: none; stroke: #8172b3; stroke-width: 1.5; stroke-linecap: round"/>
    <defs>
     <path id="me5e265024b" d="M 0 3 
C 0.795609 3 1.55874 2.683901 2.12132 2.12132 
C 2.683901 1.55874 3 0.795609 3 0 
C 3 -0.795609 2.683901 -1.55874 2.12132 -2.12132 
C 1.55874 -2.683901 0.795609 -3 0 -3 
C -0.795609 -3 -1.55874 -2.683901 -2.12132 -2.12132 
C -2.683901 -1.55874 -3 -0.795609 -3 0 
C -3 0.795609 -2.683901 1.55874 -2.12132 2.12132 
C -1.55874 2.683901 -0.795609 3 0 3 
z
" style="stroke: #ffffff; stroke-width: 0.75"/>
    </defs>
    <g clip-path="url(#p9ac9c3a14d)">
     <use xlink:href="#me5e265024b" x="88.930043" y="52.729214" style="fill: #8172b3; stroke: #ffffff; stroke-width: 0.75"/>
     <use xlink:href="#me5e265024b" x="327.920952" y="146.43433" style="fill: #8172b3; stroke: #ffffff; stroke-width: 0.75"/>
     <use xlink:href="#me5e265024b" x="566.911861" y="220.265533" style="fill: #8172b3; stroke: #ffffff; stroke-width: 0.75"/>
     <use xlink:href="#me5e265024b" x="805.90277" y="255.837518" style="fill: #8172b3; stroke: #ffffff; stroke-width: 0.75"/>
    </g>
   </g>
   <g id="line2d_22">
    <path d="M 88.930043 55.725768 
L 327.920952 244.875934 
L 566.911861 351.707886 
L 805.90277 382.852706 
" clip-path="url(#p9ac9c3a14d)" style="fill: none; stroke: #937860; stroke-width: 1.5; stroke-linecap: round"/>
    <defs>
     <path id="mea5558ced7" d="M 0 3 
C 0.795609 3 1.55874 2.683901 2.12132 2.12132 
C 2.683901 1.55874 3 0.795609 3 0 
C 3 -0.795609 2.683901 -1.55874 2.12132 -2.12132 
C 1.55874 -2.683901 0.795609 -3 0 -3 
C -0.795609 -3 -1.55874 -2.683901 -2.12132 -2.12132 
C -2.683901 -1.55874 -3 -0.795609 -3 0 
C -3 0.795609 -2.683901 1.55874 -2.12132 2.12132 
C -1.55874 2.683901 -0.795609 3 0 3 
z
" style="stroke: #ffffff; stroke-width: 0.75"/>
    </defs>
    <g clip-path="url(#p9ac9c3a14d)">
     <use xlink:href="#mea5558ced7" x="88.930043" y="55.725768" style="fill: #937860; stroke: #ffffff; stroke-width: 0.75"/>
     <use xlink:href="#mea5558ced7" x="327.920952" y="244.875934" style="fill: #937860; stroke: #ffffff; stroke-width: 0.75"/>
     <use xlink:href="#mea5558ced7" x="566.911861" y="351.707886" style="fill: #937860; stroke: #ffffff; stroke-width: 0.75"/>
     <use xlink:href="#mea5558ced7" x="805.90277" y="382.852706" style="fill: #937860; stroke: #ffffff; stroke-width: 0.75"/>
    </g>
   </g>
   <g id="line2d_23"/>
   <g id="line2d_24"/>
   <g id="line2d_25"/>
   <g id="line2d_26"/>
   <g id="line2d_27"/>
   <g id="line2d_28"/>
   <g id="patch_3">
    <path d="M 53.081406 446.34 
L 53.081406 22.32 
" style="fill: none; stroke: #cccccc; stroke-width: 1.25; stroke-linejoin: miter; stroke-linecap: square"/>
   </g>
   <g id="patch_4">
    <path d="M 841.751406 446.34 
L 841.751406 22.32 
" style="fill: none; stroke: #cccccc; stroke-width: 1.25; stroke-linejoin: miter; stroke-linecap: square"/>
   </g>
   <g id="patch_5">
    <path d="M 53.081406 446.34 
L 841.751406 446.34 
" style="fill: none; stroke: #cccccc; stroke-width: 1.25; stroke-linejoin: miter; stroke-linecap: square"/>
   </g>
   <g id="patch_6">
    <path d="M 53.081406 22.32 
L 841.751406 22.32 
" style="fill: none; stroke: #cccccc; stroke-width: 1.25; stroke-linejoin: miter; stroke-linecap: square"/>
   </g>
   <g id="text_19">
    <!-- Współczynnik rozgałęzienia $B_f$  w zależności od głębokości wyszukiwania $d$ -->
    <g style="fill: #262626" transform="translate(246.716406 16.32) scale(0.12 -0.12)">
     <defs>
      <path id="ArialMT-57" d="M 1294 0 
L 78 4581 
L 700 4581 
L 1397 1578 
Q 1509 1106 1591 641 
Q 1766 1375 1797 1488 
L 2669 4581 
L 3400 4581 
L 4056 2263 
Q 4303 1400 4413 641 
Q 4500 1075 4641 1638 
L 5359 4581 
L 5969 4581 
L 4713 0 
L 4128 0 
L 3163 3491 
Q 3041 3928 3019 4028 
Q 2947 3713 2884 3491 
L 1913 0 
L 1294 0 
z
" transform="scale(0.015625)"/>
      <path id="ArialMT-73" d="M 197 991 
L 753 1078 
Q 800 744 1014 566 
Q 1228 388 1613 388 
Q 2000 388 2187 545 
Q 2375 703 2375 916 
Q 2375 1106 2209 1216 
Q 2094 1291 1634 1406 
Q 1016 1563 777 1677 
Q 538 1791 414 1992 
Q 291 2194 291 2438 
Q 291 2659 392 2848 
Q 494 3038 669 3163 
Q 800 3259 1026 3326 
Q 1253 3394 1513 3394 
Q 1903 3394 2198 3281 
Q 2494 3169 2634 2976 
Q 2775 2784 2828 2463 
L 2278 2388 
Q 2241 2644 2061 2787 
Q 1881 2931 1553 2931 
Q 1166 2931 1000 2803 
Q 834 2675 834 2503 
Q 834 2394 903 2306 
Q 972 2216 1119 2156 
Q 1203 2125 1616 2013 
Q 2213 1853 2448 1751 
Q 2684 1650 2818 1456 
Q 2953 1263 2953 975 
Q 2953 694 2789 445 
Q 2625 197 2315 61 
Q 2006 -75 1616 -75 
Q 969 -75 630 194 
Q 291 463 197 991 
z
" transform="scale(0.015625)"/>
      <path id="ArialMT-70" d="M 422 -1272 
L 422 3319 
L 934 3319 
L 934 2888 
Q 1116 3141 1344 3267 
Q 1572 3394 1897 3394 
Q 2322 3394 2647 3175 
Q 2972 2956 3137 2557 
Q 3303 2159 3303 1684 
Q 3303 1175 3120 767 
Q 2938 359 2589 142 
Q 2241 -75 1856 -75 
Q 1575 -75 1351 44 
Q 1128 163 984 344 
L 984 -1272 
L 422 -1272 
z
M 931 1641 
Q 931 1000 1190 694 
Q 1450 388 1819 388 
Q 2194 388 2461 705 
Q 2728 1022 2728 1688 
Q 2728 2322 2467 2637 
Q 2206 2953 1844 2953 
Q 1484 2953 1207 2617 
Q 931 2281 931 1641 
z
" transform="scale(0.015625)"/>
      <path id="ArialMT-f3" d="M 213 1659 
Q 213 2581 725 3025 
Q 1153 3394 1769 3394 
Q 2453 3394 2887 2945 
Q 3322 2497 3322 1706 
Q 3322 1066 3130 698 
Q 2938 331 2570 128 
Q 2203 -75 1769 -75 
Q 1072 -75 642 372 
Q 213 819 213 1659 
z
M 791 1659 
Q 791 1022 1069 705 
Q 1347 388 1769 388 
Q 2188 388 2466 706 
Q 2744 1025 2744 1678 
Q 2744 2294 2464 2611 
Q 2184 2928 1769 2928 
Q 1347 2928 1069 2612 
Q 791 2297 791 1659 
z
M 1454 3731 
L 1869 4606 
L 2607 4606 
L 1919 3731 
L 1454 3731 
z
" transform="scale(0.015625)"/>
      <path id="ArialMT-142" d="M 416 1794 
L 9 1450 
L 9 1944 
L 416 2288 
L 416 4581 
L 975 4581 
L 975 2763 
L 1397 3122 
L 1397 2631 
L 975 2272 
L 975 0 
L 416 0 
L 416 1794 
z
" transform="scale(0.015625)"/>
      <path id="ArialMT-63" d="M 2588 1216 
L 3141 1144 
Q 3050 572 2676 248 
Q 2303 -75 1759 -75 
Q 1078 -75 664 370 
Q 250 816 250 1647 
Q 250 2184 428 2587 
Q 606 2991 970 3192 
Q 1334 3394 1763 3394 
Q 2303 3394 2647 3120 
Q 2991 2847 3088 2344 
L 2541 2259 
Q 2463 2594 2264 2762 
Q 2066 2931 1784 2931 
Q 1359 2931 1093 2626 
Q 828 2322 828 1663 
Q 828 994 1084 691 
Q 1341 388 1753 388 
Q 2084 388 2306 591 
Q 2528 794 2588 1216 
z
" transform="scale(0.015625)"/>
      <path id="ArialMT-7a" d="M 125 0 
L 125 456 
L 2238 2881 
Q 1878 2863 1603 2863 
L 250 2863 
L 250 3319 
L 2963 3319 
L 2963 2947 
L 1166 841 
L 819 456 
Q 1197 484 1528 484 
L 3063 484 
L 3063 0 
L 125 0 
z
" transform="scale(0.015625)"/>
      <path id="ArialMT-79" d="M 397 -1278 
L 334 -750 
Q 519 -800 656 -800 
Q 844 -800 956 -737 
Q 1069 -675 1141 -563 
Q 1194 -478 1313 -144 
Q 1328 -97 1363 -6 
L 103 3319 
L 709 3319 
L 1400 1397 
Q 1534 1031 1641 628 
Q 1738 1016 1872 1384 
L 2581 3319 
L 3144 3319 
L 1881 -56 
Q 1678 -603 1566 -809 
Q 1416 -1088 1222 -1217 
Q 1028 -1347 759 -1347 
Q 597 -1347 397 -1278 
z
" transform="scale(0.015625)"/>
      <path id="ArialMT-6e" d="M 422 0 
L 422 3319 
L 928 3319 
L 928 2847 
Q 1294 3394 1984 3394 
Q 2284 3394 2536 3286 
Q 2788 3178 2913 3003 
Q 3038 2828 3088 2588 
Q 3119 2431 3119 2041 
L 3119 0 
L 2556 0 
L 2556 2019 
Q 2556 2363 2490 2533 
Q 2425 2703 2258 2804 
Q 2091 2906 1866 2906 
Q 1506 2906 1245 2678 
Q 984 2450 984 1813 
L 984 0 
L 422 0 
z
" transform="scale(0.015625)"/>
      <path id="ArialMT-69" d="M 425 3934 
L 425 4581 
L 988 4581 
L 988 3934 
L 425 3934 
z
M 425 0 
L 425 3319 
L 988 3319 
L 988 0 
L 425 0 
z
" transform="scale(0.015625)"/>
      <path id="ArialMT-6b" d="M 425 0 
L 425 4581 
L 988 4581 
L 988 1969 
L 2319 3319 
L 3047 3319 
L 1778 2088 
L 3175 0 
L 2481 0 
L 1384 1697 
L 988 1316 
L 988 0 
L 425 0 
z
" transform="scale(0.015625)"/>
      <path id="ArialMT-20" transform="scale(0.015625)"/>
      <path id="ArialMT-72" d="M 416 0 
L 416 3319 
L 922 3319 
L 922 2816 
Q 1116 3169 1280 3281 
Q 1444 3394 1641 3394 
Q 1925 3394 2219 3213 
L 2025 2691 
Q 1819 2813 1613 2813 
Q 1428 2813 1281 2702 
Q 1134 2591 1072 2394 
Q 978 2094 978 1738 
L 978 0 
L 416 0 
z
" transform="scale(0.015625)"/>
      <path id="ArialMT-6f" d="M 213 1659 
Q 213 2581 725 3025 
Q 1153 3394 1769 3394 
Q 2453 3394 2887 2945 
Q 3322 2497 3322 1706 
Q 3322 1066 3130 698 
Q 2938 331 2570 128 
Q 2203 -75 1769 -75 
Q 1072 -75 642 372 
Q 213 819 213 1659 
z
M 791 1659 
Q 791 1022 1069 705 
Q 1347 388 1769 388 
Q 2188 388 2466 706 
Q 2744 1025 2744 1678 
Q 2744 2294 2464 2611 
Q 2184 2928 1769 2928 
Q 1347 2928 1069 2612 
Q 791 2297 791 1659 
z
" transform="scale(0.015625)"/>
      <path id="ArialMT-67" d="M 319 -275 
L 866 -356 
Q 900 -609 1056 -725 
Q 1266 -881 1628 -881 
Q 2019 -881 2231 -725 
Q 2444 -569 2519 -288 
Q 2563 -116 2559 434 
Q 2191 0 1641 0 
Q 956 0 581 494 
Q 206 988 206 1678 
Q 206 2153 378 2554 
Q 550 2956 876 3175 
Q 1203 3394 1644 3394 
Q 2231 3394 2613 2919 
L 2613 3319 
L 3131 3319 
L 3131 450 
Q 3131 -325 2973 -648 
Q 2816 -972 2473 -1159 
Q 2131 -1347 1631 -1347 
Q 1038 -1347 672 -1080 
Q 306 -813 319 -275 
z
M 784 1719 
Q 784 1066 1043 766 
Q 1303 466 1694 466 
Q 2081 466 2343 764 
Q 2606 1063 2606 1700 
Q 2606 2309 2336 2618 
Q 2066 2928 1684 2928 
Q 1309 2928 1046 2623 
Q 784 2319 784 1719 
z
" transform="scale(0.015625)"/>
      <path id="ArialMT-61" d="M 2588 409 
Q 2275 144 1986 34 
Q 1697 -75 1366 -75 
Q 819 -75 525 192 
Q 231 459 231 875 
Q 231 1119 342 1320 
Q 453 1522 633 1644 
Q 813 1766 1038 1828 
Q 1203 1872 1538 1913 
Q 2219 1994 2541 2106 
Q 2544 2222 2544 2253 
Q 2544 2597 2384 2738 
Q 2169 2928 1744 2928 
Q 1347 2928 1158 2789 
Q 969 2650 878 2297 
L 328 2372 
Q 403 2725 575 2942 
Q 747 3159 1072 3276 
Q 1397 3394 1825 3394 
Q 2250 3394 2515 3294 
Q 2781 3194 2906 3042 
Q 3031 2891 3081 2659 
Q 3109 2516 3109 2141 
L 3109 1391 
Q 3109 606 3145 398 
Q 3181 191 3288 0 
L 2700 0 
Q 2613 175 2588 409 
z
M 2541 1666 
Q 2234 1541 1622 1453 
Q 1275 1403 1131 1340 
Q 988 1278 909 1158 
Q 831 1038 831 891 
Q 831 666 1001 516 
Q 1172 366 1500 366 
Q 1825 366 2078 508 
Q 2331 650 2450 897 
Q 2541 1088 2541 1459 
L 2541 1666 
z
" transform="scale(0.015625)"/>
      <path id="ArialMT-119" d="M 2694 1069 
L 3275 997 
Q 3138 488 2766 206 
Q 2394 -75 1816 -75 
Q 1088 -75 661 373 
Q 234 822 234 1631 
Q 234 2469 665 2931 
Q 1097 3394 1784 3394 
Q 2450 3394 2872 2941 
Q 3294 2488 3294 1666 
Q 3294 1616 3291 1516 
L 816 1516 
Q 847 969 1125 678 
Q 1403 388 1819 388 
Q 2128 388 2347 550 
Q 2566 713 2694 1069 
z
M 847 1978 
L 2700 1978 
Q 2663 2397 2488 2606 
Q 2219 2931 1791 2931 
Q 1403 2931 1139 2672 
Q 875 2413 847 1978 
z
M 2294 0 
Q 2116 -109 2017 -270 
Q 1919 -431 1919 -597 
Q 1919 -728 1991 -818 
Q 2063 -909 2225 -909 
Q 2297 -909 2372 -889 
Q 2447 -869 2510 -834 
L 2510 -1234 
Q 2282 -1344 2085 -1344 
Q 1925 -1344 1806 -1298 
Q 1688 -1253 1608 -1173 
Q 1529 -1094 1489 -991 
Q 1450 -888 1450 -769 
Q 1450 -569 1562 -367 
Q 1675 -166 1882 0 
L 2294 0 
z
" transform="scale(0.015625)"/>
      <path id="ArialMT-65" d="M 2694 1069 
L 3275 997 
Q 3138 488 2766 206 
Q 2394 -75 1816 -75 
Q 1088 -75 661 373 
Q 234 822 234 1631 
Q 234 2469 665 2931 
Q 1097 3394 1784 3394 
Q 2450 3394 2872 2941 
Q 3294 2488 3294 1666 
Q 3294 1616 3291 1516 
L 816 1516 
Q 847 969 1125 678 
Q 1403 388 1819 388 
Q 2128 388 2347 550 
Q 2566 713 2694 1069 
z
M 847 1978 
L 2700 1978 
Q 2663 2397 2488 2606 
Q 2219 2931 1791 2931 
Q 1403 2931 1139 2672 
Q 875 2413 847 1978 
z
" transform="scale(0.015625)"/>
      <path id="ArialMT-77" d="M 1034 0 
L 19 3319 
L 600 3319 
L 1128 1403 
L 1325 691 
Q 1338 744 1497 1375 
L 2025 3319 
L 2603 3319 
L 3100 1394 
L 3266 759 
L 3456 1400 
L 4025 3319 
L 4572 3319 
L 3534 0 
L 2950 0 
L 2422 1988 
L 2294 2553 
L 1622 0 
L 1034 0 
z
" transform="scale(0.015625)"/>
      <path id="ArialMT-6c" d="M 409 0 
L 409 4581 
L 972 4581 
L 972 0 
L 409 0 
z
" transform="scale(0.015625)"/>
      <path id="ArialMT-17c" d="M 125 0 
L 125 456 
L 2238 2881 
Q 1878 2863 1603 2863 
L 250 2863 
L 250 3319 
L 2963 3319 
L 2963 2947 
L 1166 841 
L 819 456 
Q 1197 484 1528 484 
L 3063 484 
L 3063 0 
L 125 0 
z
M 1244 3731 
L 1244 4431 
L 1941 4431 
L 1941 3731 
L 1244 3731 
z
" transform="scale(0.015625)"/>
      <path id="ArialMT-15b" d="M 197 991 
L 753 1078 
Q 800 744 1014 566 
Q 1228 388 1613 388 
Q 2000 388 2187 545 
Q 2375 703 2375 916 
Q 2375 1106 2209 1216 
Q 2094 1291 1634 1406 
Q 1016 1563 777 1677 
Q 538 1791 414 1992 
Q 291 2194 291 2438 
Q 291 2659 392 2848 
Q 494 3038 669 3163 
Q 800 3259 1026 3326 
Q 1253 3394 1513 3394 
Q 1903 3394 2198 3281 
Q 2494 3169 2634 2976 
Q 2775 2784 2828 2463 
L 2278 2388 
Q 2241 2644 2061 2787 
Q 1881 2931 1553 2931 
Q 1166 2931 1000 2803 
Q 834 2675 834 2503 
Q 834 2394 903 2306 
Q 972 2216 1119 2156 
Q 1203 2125 1616 2013 
Q 2213 1853 2448 1751 
Q 2684 1650 2818 1456 
Q 2953 1263 2953 975 
Q 2953 694 2789 445 
Q 2625 197 2315 61 
Q 2006 -75 1616 -75 
Q 969 -75 630 194 
Q 291 463 197 991 
z
M 1230 3731 
L 1645 4606 
L 2383 4606 
L 1695 3731 
L 1230 3731 
z
" transform="scale(0.015625)"/>
      <path id="ArialMT-64" d="M 2575 0 
L 2575 419 
Q 2259 -75 1647 -75 
Q 1250 -75 917 144 
Q 584 363 401 755 
Q 219 1147 219 1656 
Q 219 2153 384 2558 
Q 550 2963 881 3178 
Q 1213 3394 1622 3394 
Q 1922 3394 2156 3267 
Q 2391 3141 2538 2938 
L 2538 4581 
L 3097 4581 
L 3097 0 
L 2575 0 
z
M 797 1656 
Q 797 1019 1065 703 
Q 1334 388 1700 388 
Q 2069 388 2326 689 
Q 2584 991 2584 1609 
Q 2584 2291 2321 2609 
Q 2059 2928 1675 2928 
Q 1300 2928 1048 2622 
Q 797 2316 797 1656 
z
" transform="scale(0.015625)"/>
      <path id="ArialMT-62" d="M 941 0 
L 419 0 
L 419 4581 
L 981 4581 
L 981 2947 
Q 1338 3394 1891 3394 
Q 2197 3394 2470 3270 
Q 2744 3147 2920 2923 
Q 3097 2700 3197 2384 
Q 3297 2069 3297 1709 
Q 3297 856 2875 390 
Q 2453 -75 1863 -75 
Q 1275 -75 941 416 
L 941 0 
z
M 934 1684 
Q 934 1088 1097 822 
Q 1363 388 1816 388 
Q 2184 388 2453 708 
Q 2722 1028 2722 1663 
Q 2722 2313 2464 2622 
Q 2206 2931 1841 2931 
Q 1472 2931 1203 2611 
Q 934 2291 934 1684 
z
" transform="scale(0.015625)"/>
      <path id="ArialMT-75" d="M 2597 0 
L 2597 488 
Q 2209 -75 1544 -75 
Q 1250 -75 995 37 
Q 741 150 617 320 
Q 494 491 444 738 
Q 409 903 409 1263 
L 409 3319 
L 972 3319 
L 972 1478 
Q 972 1038 1006 884 
Q 1059 663 1231 536 
Q 1403 409 1656 409 
Q 1909 409 2131 539 
Q 2353 669 2445 892 
Q 2538 1116 2538 1541 
L 2538 3319 
L 3100 3319 
L 3100 0 
L 2597 0 
z
" transform="scale(0.015625)"/>
     </defs>
     <use xlink:href="#ArialMT-57" transform="translate(0 0.015625)"/>
     <use xlink:href="#ArialMT-73" transform="translate(94.384766 0.015625)"/>
     <use xlink:href="#ArialMT-70" transform="translate(144.384766 0.015625)"/>
     <use xlink:href="#ArialMT-f3" transform="translate(200 0.015625)"/>
     <use xlink:href="#ArialMT-142" transform="translate(255.615234 0.015625)"/>
     <use xlink:href="#ArialMT-63" transform="translate(277.832031 0.015625)"/>
     <use xlink:href="#ArialMT-7a" transform="translate(327.832031 0.015625)"/>
     <use xlink:href="#ArialMT-79" transform="translate(377.832031 0.015625)"/>
     <use xlink:href="#ArialMT-6e" transform="translate(427.832031 0.015625)"/>
     <use xlink:href="#ArialMT-6e" transform="translate(483.447266 0.015625)"/>
     <use xlink:href="#ArialMT-69" transform="translate(539.0625 0.015625)"/>
     <use xlink:href="#ArialMT-6b" transform="translate(561.279297 0.015625)"/>
     <use xlink:href="#ArialMT-20" transform="translate(611.279297 0.015625)"/>
     <use xlink:href="#ArialMT-72" transform="translate(639.0625 0.015625)"/>
     <use xlink:href="#ArialMT-6f" transform="translate(672.363281 0.015625)"/>
     <use xlink:href="#ArialMT-7a" transform="translate(727.978516 0.015625)"/>
     <use xlink:href="#ArialMT-67" transform="translate(777.978516 0.015625)"/>
     <use xlink:href="#ArialMT-61" transform="translate(833.59375 0.015625)"/>
     <use xlink:href="#ArialMT-142" transform="translate(889.208984 0.015625)"/>
     <use xlink:href="#ArialMT-119" transform="translate(911.425781 0.015625)"/>
     <use xlink:href="#ArialMT-7a" transform="translate(967.041016 0.015625)"/>
     <use xlink:href="#ArialMT-69" transform="translate(1017.041016 0.015625)"/>
     <use xlink:href="#ArialMT-65" transform="translate(1039.257812 0.015625)"/>
     <use xlink:href="#ArialMT-6e" transform="translate(1094.873047 0.015625)"/>
     <use xlink:href="#ArialMT-69" transform="translate(1150.488281 0.015625)"/>
     <use xlink:href="#ArialMT-61" transform="translate(1172.705078 0.015625)"/>
     <use xlink:href="#ArialMT-20" transform="translate(1228.320312 0.015625)"/>
     <use xlink:href="#DejaVuSans-Oblique-42" transform="translate(1256.103516 0.015625)"/>
     <use xlink:href="#DejaVuSans-Oblique-66" transform="translate(1324.707031 -16.390625) scale(0.7)"/>
     <use xlink:href="#ArialMT-20" transform="translate(1352.084961 0.015625)"/>
     <use xlink:href="#ArialMT-20" transform="translate(1379.868164 0.015625)"/>
     <use xlink:href="#ArialMT-77" transform="translate(1407.651367 0.015625)"/>
     <use xlink:href="#ArialMT-20" transform="translate(1479.868164 0.015625)"/>
     <use xlink:href="#ArialMT-7a" transform="translate(1507.651367 0.015625)"/>
     <use xlink:href="#ArialMT-61" transform="translate(1557.651367 0.015625)"/>
     <use xlink:href="#ArialMT-6c" transform="translate(1613.266602 0.015625)"/>
     <use xlink:href="#ArialMT-65" transform="translate(1635.483398 0.015625)"/>
     <use xlink:href="#ArialMT-17c" transform="translate(1691.098633 0.015625)"/>
     <use xlink:href="#ArialMT-6e" transform="translate(1741.098633 0.015625)"/>
     <use xlink:href="#ArialMT-6f" transform="translate(1796.713867 0.015625)"/>
     <use xlink:href="#ArialMT-15b" transform="translate(1852.329102 0.015625)"/>
     <use xlink:href="#ArialMT-63" transform="translate(1902.329102 0.015625)"/>
     <use xlink:href="#ArialMT-69" transform="translate(1952.329102 0.015625)"/>
     <use xlink:href="#ArialMT-20" transform="translate(1974.545898 0.015625)"/>
     <use xlink:href="#ArialMT-6f" transform="translate(2002.329102 0.015625)"/>
     <use xlink:href="#ArialMT-64" transform="translate(2057.944336 0.015625)"/>
     <use xlink:href="#ArialMT-20" transform="translate(2113.55957 0.015625)"/>
     <use xlink:href="#ArialMT-67" transform="translate(2141.342773 0.015625)"/>
     <use xlink:href="#ArialMT-142" transform="translate(2196.958008 0.015625)"/>
     <use xlink:href="#ArialMT-119" transform="translate(2219.174805 0.015625)"/>
     <use xlink:href="#ArialMT-62" transform="translate(2274.790039 0.015625)"/>
     <use xlink:href="#ArialMT-6f" transform="translate(2330.405273 0.015625)"/>
     <use xlink:href="#ArialMT-6b" transform="translate(2386.020508 0.015625)"/>
     <use xlink:href="#ArialMT-6f" transform="translate(2436.020508 0.015625)"/>
     <use xlink:href="#ArialMT-15b" transform="translate(2491.635742 0.015625)"/>
     <use xlink:href="#ArialMT-63" transform="translate(2541.635742 0.015625)"/>
     <use xlink:href="#ArialMT-69" transform="translate(2591.635742 0.015625)"/>
     <use xlink:href="#ArialMT-20" transform="translate(2613.852539 0.015625)"/>
     <use xlink:href="#ArialMT-77" transform="translate(2641.635742 0.015625)"/>
     <use xlink:href="#ArialMT-79" transform="translate(2713.852539 0.015625)"/>
     <use xlink:href="#ArialMT-73" transform="translate(2763.852539 0.015625)"/>
     <use xlink:href="#ArialMT-7a" transform="translate(2813.852539 0.015625)"/>
     <use xlink:href="#ArialMT-75" transform="translate(2863.852539 0.015625)"/>
     <use xlink:href="#ArialMT-6b" transform="translate(2919.467773 0.015625)"/>
     <use xlink:href="#ArialMT-69" transform="translate(2969.467773 0.015625)"/>
     <use xlink:href="#ArialMT-77" transform="translate(2991.68457 0.015625)"/>
     <use xlink:href="#ArialMT-61" transform="translate(3063.901367 0.015625)"/>
     <use xlink:href="#ArialMT-6e" transform="translate(3119.516602 0.015625)"/>
     <use xlink:href="#ArialMT-69" transform="translate(3175.131836 0.015625)"/>
     <use xlink:href="#ArialMT-61" transform="translate(3197.348633 0.015625)"/>
     <use xlink:href="#ArialMT-20" transform="translate(3252.963867 0.015625)"/>
     <use xlink:href="#DejaVuSans-Oblique-64" transform="translate(3280.74707 0.015625)"/>
    </g>
   </g>
   <g id="legend_1">
    <g id="patch_7">
     <path d="M 60.781406 440.84 
L 258.032031 440.84 
Q 260.232031 440.84 260.232031 438.64 
L 260.232031 312.768906 
Q 260.232031 310.568906 258.032031 310.568906 
L 60.781406 310.568906 
Q 58.581406 310.568906 58.581406 312.768906 
L 58.581406 438.64 
Q 58.581406 440.84 60.781406 440.84 
z
" style="fill: #ffffff; opacity: 0.8; stroke: #cccccc; stroke-linejoin: miter"/>
    </g>
    <g id="text_20">
     <!-- Model -->
     <g style="fill: #262626" transform="translate(143.066094 323.558281) scale(0.12 -0.12)">
      <defs>
       <path id="ArialMT-4d" d="M 475 0 
L 475 4581 
L 1388 4581 
L 2472 1338 
Q 2622 884 2691 659 
Q 2769 909 2934 1394 
L 4031 4581 
L 4847 4581 
L 4847 0 
L 4263 0 
L 4263 3834 
L 2931 0 
L 2384 0 
L 1059 3900 
L 1059 0 
L 475 0 
z
" transform="scale(0.015625)"/>
      </defs>
      <use xlink:href="#ArialMT-4d"/>
      <use xlink:href="#ArialMT-6f" transform="translate(83.300781 0)"/>
      <use xlink:href="#ArialMT-64" transform="translate(138.916016 0)"/>
      <use xlink:href="#ArialMT-65" transform="translate(194.53125 0)"/>
      <use xlink:href="#ArialMT-6c" transform="translate(250.146484 0)"/>
     </g>
    </g>
    <g id="line2d_29">
     <path d="M 62.981406 335.600937 
L 73.981406 335.600937 
L 84.981406 335.600937 
" style="fill: none; stroke: #4c72b0; stroke-width: 1.5; stroke-linecap: round"/>
     <g>
      <use xlink:href="#m7c75d58a25" x="73.981406" y="335.600937" style="fill: #4c72b0; stroke: #ffffff; stroke-width: 0.75"/>
     </g>
    </g>
    <g id="text_21">
     <!-- kan (3072/15/32) _g=3,k=3_ -->
     <g style="fill: #262626" transform="translate(93.781406 339.450938) scale(0.11 -0.11)">
      <defs>
       <path id="ArialMT-28" d="M 1497 -1347 
Q 1031 -759 709 28 
Q 388 816 388 1659 
Q 388 2403 628 3084 
Q 909 3875 1497 4659 
L 1900 4659 
Q 1522 4009 1400 3731 
Q 1209 3300 1100 2831 
Q 966 2247 966 1656 
Q 966 153 1900 -1347 
L 1497 -1347 
z
" transform="scale(0.015625)"/>
       <path id="ArialMT-2f" d="M 0 -78 
L 1328 4659 
L 1778 4659 
L 453 -78 
L 0 -78 
z
" transform="scale(0.015625)"/>
       <path id="ArialMT-29" d="M 791 -1347 
L 388 -1347 
Q 1322 153 1322 1656 
Q 1322 2244 1188 2822 
Q 1081 3291 891 3722 
Q 769 4003 388 4659 
L 791 4659 
Q 1378 3875 1659 3084 
Q 1900 2403 1900 1659 
Q 1900 816 1576 28 
Q 1253 -759 791 -1347 
z
" transform="scale(0.015625)"/>
       <path id="ArialMT-5f" d="M -97 -1272 
L -97 -866 
L 3631 -866 
L 3631 -1272 
L -97 -1272 
z
" transform="scale(0.015625)"/>
       <path id="ArialMT-3d" d="M 3381 2694 
L 356 2694 
L 356 3219 
L 3381 3219 
L 3381 2694 
z
M 3381 1303 
L 356 1303 
L 356 1828 
L 3381 1828 
L 3381 1303 
z
" transform="scale(0.015625)"/>
       <path id="ArialMT-2c" d="M 569 0 
L 569 641 
L 1209 641 
L 1209 0 
Q 1209 -353 1084 -570 
Q 959 -788 688 -906 
L 531 -666 
Q 709 -588 793 -436 
Q 878 -284 888 0 
L 569 0 
z
" transform="scale(0.015625)"/>
      </defs>
      <use xlink:href="#ArialMT-6b"/>
      <use xlink:href="#ArialMT-61" transform="translate(50 0)"/>
      <use xlink:href="#ArialMT-6e" transform="translate(105.615234 0)"/>
      <use xlink:href="#ArialMT-20" transform="translate(161.230469 0)"/>
      <use xlink:href="#ArialMT-28" transform="translate(189.013672 0)"/>
      <use xlink:href="#ArialMT-33" transform="translate(222.314453 0)"/>
      <use xlink:href="#ArialMT-30" transform="translate(277.929688 0)"/>
      <use xlink:href="#ArialMT-37" transform="translate(333.544922 0)"/>
      <use xlink:href="#ArialMT-32" transform="translate(389.160156 0)"/>
      <use xlink:href="#ArialMT-2f" transform="translate(444.775391 0)"/>
      <use xlink:href="#ArialMT-31" transform="translate(472.558594 0)"/>
      <use xlink:href="#ArialMT-35" transform="translate(528.173828 0)"/>
      <use xlink:href="#ArialMT-2f" transform="translate(583.789062 0)"/>
      <use xlink:href="#ArialMT-33" transform="translate(611.572266 0)"/>
      <use xlink:href="#ArialMT-32" transform="translate(667.1875 0)"/>
      <use xlink:href="#ArialMT-29" transform="translate(722.802734 0)"/>
      <use xlink:href="#ArialMT-20" transform="translate(756.103516 0)"/>
      <use xlink:href="#ArialMT-5f" transform="translate(783.886719 0)"/>
      <use xlink:href="#ArialMT-67" transform="translate(839.501953 0)"/>
      <use xlink:href="#ArialMT-3d" transform="translate(895.117188 0)"/>
      <use xlink:href="#ArialMT-33" transform="translate(953.515625 0)"/>
      <use xlink:href="#ArialMT-2c" transform="translate(1009.130859 0)"/>
      <use xlink:href="#ArialMT-6b" transform="translate(1036.914062 0)"/>
      <use xlink:href="#ArialMT-3d" transform="translate(1086.914062 0)"/>
      <use xlink:href="#ArialMT-33" transform="translate(1145.3125 0)"/>
      <use xlink:href="#ArialMT-5f" transform="translate(1200.927734 0)"/>
     </g>
    </g>
    <g id="line2d_30">
     <path d="M 62.981406 351.42375 
L 73.981406 351.42375 
L 84.981406 351.42375 
" style="fill: none; stroke: #dd8452; stroke-width: 1.5; stroke-linecap: round"/>
     <g>
      <use xlink:href="#m0e73e129db" x="73.981406" y="351.42375" style="fill: #dd8452; stroke: #ffffff; stroke-width: 0.75"/>
     </g>
    </g>
    <g id="text_22">
     <!-- mlp_kan (3072/12/28) _g=3,k=3_ -->
     <g style="fill: #262626" transform="translate(93.781406 355.27375) scale(0.11 -0.11)">
      <defs>
       <path id="ArialMT-6d" d="M 422 0 
L 422 3319 
L 925 3319 
L 925 2853 
Q 1081 3097 1340 3245 
Q 1600 3394 1931 3394 
Q 2300 3394 2536 3241 
Q 2772 3088 2869 2813 
Q 3263 3394 3894 3394 
Q 4388 3394 4653 3120 
Q 4919 2847 4919 2278 
L 4919 0 
L 4359 0 
L 4359 2091 
Q 4359 2428 4304 2576 
Q 4250 2725 4106 2815 
Q 3963 2906 3769 2906 
Q 3419 2906 3187 2673 
Q 2956 2441 2956 1928 
L 2956 0 
L 2394 0 
L 2394 2156 
Q 2394 2531 2256 2718 
Q 2119 2906 1806 2906 
Q 1569 2906 1367 2781 
Q 1166 2656 1075 2415 
Q 984 2175 984 1722 
L 984 0 
L 422 0 
z
" transform="scale(0.015625)"/>
      </defs>
      <use xlink:href="#ArialMT-6d"/>
      <use xlink:href="#ArialMT-6c" transform="translate(83.300781 0)"/>
      <use xlink:href="#ArialMT-70" transform="translate(105.517578 0)"/>
      <use xlink:href="#ArialMT-5f" transform="translate(161.132812 0)"/>
      <use xlink:href="#ArialMT-6b" transform="translate(216.748047 0)"/>
      <use xlink:href="#ArialMT-61" transform="translate(266.748047 0)"/>
      <use xlink:href="#ArialMT-6e" transform="translate(322.363281 0)"/>
      <use xlink:href="#ArialMT-20" transform="translate(377.978516 0)"/>
      <use xlink:href="#ArialMT-28" transform="translate(405.761719 0)"/>
      <use xlink:href="#ArialMT-33" transform="translate(439.0625 0)"/>
      <use xlink:href="#ArialMT-30" transform="translate(494.677734 0)"/>
      <use xlink:href="#ArialMT-37" transform="translate(550.292969 0)"/>
      <use xlink:href="#ArialMT-32" transform="translate(605.908203 0)"/>
      <use xlink:href="#ArialMT-2f" transform="translate(661.523438 0)"/>
      <use xlink:href="#ArialMT-31" transform="translate(689.306641 0)"/>
      <use xlink:href="#ArialMT-32" transform="translate(744.921875 0)"/>
      <use xlink:href="#ArialMT-2f" transform="translate(800.537109 0)"/>
      <use xlink:href="#ArialMT-32" transform="translate(828.320312 0)"/>
      <use xlink:href="#ArialMT-38" transform="translate(883.935547 0)"/>
      <use xlink:href="#ArialMT-29" transform="translate(939.550781 0)"/>
      <use xlink:href="#ArialMT-20" transform="translate(972.851562 0)"/>
      <use xlink:href="#ArialMT-5f" transform="translate(1000.634766 0)"/>
      <use xlink:href="#ArialMT-67" transform="translate(1056.25 0)"/>
      <use xlink:href="#ArialMT-3d" transform="translate(1111.865234 0)"/>
      <use xlink:href="#ArialMT-33" transform="translate(1170.263672 0)"/>
      <use xlink:href="#ArialMT-2c" transform="translate(1225.878906 0)"/>
      <use xlink:href="#ArialMT-6b" transform="translate(1253.662109 0)"/>
      <use xlink:href="#ArialMT-3d" transform="translate(1303.662109 0)"/>
      <use xlink:href="#ArialMT-33" transform="translate(1362.060547 0)"/>
      <use xlink:href="#ArialMT-5f" transform="translate(1417.675781 0)"/>
     </g>
    </g>
    <g id="line2d_31">
     <path d="M 62.981406 367.246562 
L 73.981406 367.246562 
L 84.981406 367.246562 
" style="fill: none; stroke: #55a868; stroke-width: 1.5; stroke-linecap: round"/>
     <g>
      <use xlink:href="#m3dd06fda0f" x="73.981406" y="367.246562" style="fill: #55a868; stroke: #ffffff; stroke-width: 0.75"/>
     </g>
    </g>
    <g id="text_23">
     <!-- mlp_kan (3072/15/32) _g=3,k=3_ -->
     <g style="fill: #262626" transform="translate(93.781406 371.096563) scale(0.11 -0.11)">
      <use xlink:href="#ArialMT-6d"/>
      <use xlink:href="#ArialMT-6c" transform="translate(83.300781 0)"/>
      <use xlink:href="#ArialMT-70" transform="translate(105.517578 0)"/>
      <use xlink:href="#ArialMT-5f" transform="translate(161.132812 0)"/>
      <use xlink:href="#ArialMT-6b" transform="translate(216.748047 0)"/>
      <use xlink:href="#ArialMT-61" transform="translate(266.748047 0)"/>
      <use xlink:href="#ArialMT-6e" transform="translate(322.363281 0)"/>
      <use xlink:href="#ArialMT-20" transform="translate(377.978516 0)"/>
      <use xlink:href="#ArialMT-28" transform="translate(405.761719 0)"/>
      <use xlink:href="#ArialMT-33" transform="translate(439.0625 0)"/>
      <use xlink:href="#ArialMT-30" transform="translate(494.677734 0)"/>
      <use xlink:href="#ArialMT-37" transform="translate(550.292969 0)"/>
      <use xlink:href="#ArialMT-32" transform="translate(605.908203 0)"/>
      <use xlink:href="#ArialMT-2f" transform="translate(661.523438 0)"/>
      <use xlink:href="#ArialMT-31" transform="translate(689.306641 0)"/>
      <use xlink:href="#ArialMT-35" transform="translate(744.921875 0)"/>
      <use xlink:href="#ArialMT-2f" transform="translate(800.537109 0)"/>
      <use xlink:href="#ArialMT-33" transform="translate(828.320312 0)"/>
      <use xlink:href="#ArialMT-32" transform="translate(883.935547 0)"/>
      <use xlink:href="#ArialMT-29" transform="translate(939.550781 0)"/>
      <use xlink:href="#ArialMT-20" transform="translate(972.851562 0)"/>
      <use xlink:href="#ArialMT-5f" transform="translate(1000.634766 0)"/>
      <use xlink:href="#ArialMT-67" transform="translate(1056.25 0)"/>
      <use xlink:href="#ArialMT-3d" transform="translate(1111.865234 0)"/>
      <use xlink:href="#ArialMT-33" transform="translate(1170.263672 0)"/>
      <use xlink:href="#ArialMT-2c" transform="translate(1225.878906 0)"/>
      <use xlink:href="#ArialMT-6b" transform="translate(1253.662109 0)"/>
      <use xlink:href="#ArialMT-3d" transform="translate(1303.662109 0)"/>
      <use xlink:href="#ArialMT-33" transform="translate(1362.060547 0)"/>
      <use xlink:href="#ArialMT-5f" transform="translate(1417.675781 0)"/>
     </g>
    </g>
    <g id="line2d_32">
     <path d="M 62.981406 383.069375 
L 73.981406 383.069375 
L 84.981406 383.069375 
" style="fill: none; stroke: #c44e52; stroke-width: 1.5; stroke-linecap: round"/>
     <g>
      <use xlink:href="#ma1863d3db1" x="73.981406" y="383.069375" style="fill: #c44e52; stroke: #ffffff; stroke-width: 0.75"/>
     </g>
    </g>
    <g id="text_24">
     <!-- mlp_kan (3072/2/4) _g=2,k=2_ -->
     <g style="fill: #262626" transform="translate(93.781406 386.919375) scale(0.11 -0.11)">
      <use xlink:href="#ArialMT-6d"/>
      <use xlink:href="#ArialMT-6c" transform="translate(83.300781 0)"/>
      <use xlink:href="#ArialMT-70" transform="translate(105.517578 0)"/>
      <use xlink:href="#ArialMT-5f" transform="translate(161.132812 0)"/>
      <use xlink:href="#ArialMT-6b" transform="translate(216.748047 0)"/>
      <use xlink:href="#ArialMT-61" transform="translate(266.748047 0)"/>
      <use xlink:href="#ArialMT-6e" transform="translate(322.363281 0)"/>
      <use xlink:href="#ArialMT-20" transform="translate(377.978516 0)"/>
      <use xlink:href="#ArialMT-28" transform="translate(405.761719 0)"/>
      <use xlink:href="#ArialMT-33" transform="translate(439.0625 0)"/>
      <use xlink:href="#ArialMT-30" transform="translate(494.677734 0)"/>
      <use xlink:href="#ArialMT-37" transform="translate(550.292969 0)"/>
      <use xlink:href="#ArialMT-32" transform="translate(605.908203 0)"/>
      <use xlink:href="#ArialMT-2f" transform="translate(661.523438 0)"/>
      <use xlink:href="#ArialMT-32" transform="translate(689.306641 0)"/>
      <use xlink:href="#ArialMT-2f" transform="translate(744.921875 0)"/>
      <use xlink:href="#ArialMT-34" transform="translate(772.705078 0)"/>
      <use xlink:href="#ArialMT-29" transform="translate(828.320312 0)"/>
      <use xlink:href="#ArialMT-20" transform="translate(861.621094 0)"/>
      <use xlink:href="#ArialMT-5f" transform="translate(889.404297 0)"/>
      <use xlink:href="#ArialMT-67" transform="translate(945.019531 0)"/>
      <use xlink:href="#ArialMT-3d" transform="translate(1000.634766 0)"/>
      <use xlink:href="#ArialMT-32" transform="translate(1059.033203 0)"/>
      <use xlink:href="#ArialMT-2c" transform="translate(1114.648438 0)"/>
      <use xlink:href="#ArialMT-6b" transform="translate(1142.431641 0)"/>
      <use xlink:href="#ArialMT-3d" transform="translate(1192.431641 0)"/>
      <use xlink:href="#ArialMT-32" transform="translate(1250.830078 0)"/>
      <use xlink:href="#ArialMT-5f" transform="translate(1306.445312 0)"/>
     </g>
    </g>
    <g id="line2d_33">
     <path d="M 62.981406 398.892187 
L 73.981406 398.892187 
L 84.981406 398.892187 
" style="fill: none; stroke: #8172b3; stroke-width: 1.5; stroke-linecap: round"/>
     <g>
      <use xlink:href="#me5e265024b" x="73.981406" y="398.892187" style="fill: #8172b3; stroke: #ffffff; stroke-width: 0.75"/>
     </g>
    </g>
    <g id="text_25">
     <!-- mlp_kan (3072/2/4) _g=3,k=3_ -->
     <g style="fill: #262626" transform="translate(93.781406 402.742188) scale(0.11 -0.11)">
      <use xlink:href="#ArialMT-6d"/>
      <use xlink:href="#ArialMT-6c" transform="translate(83.300781 0)"/>
      <use xlink:href="#ArialMT-70" transform="translate(105.517578 0)"/>
      <use xlink:href="#ArialMT-5f" transform="translate(161.132812 0)"/>
      <use xlink:href="#ArialMT-6b" transform="translate(216.748047 0)"/>
      <use xlink:href="#ArialMT-61" transform="translate(266.748047 0)"/>
      <use xlink:href="#ArialMT-6e" transform="translate(322.363281 0)"/>
      <use xlink:href="#ArialMT-20" transform="translate(377.978516 0)"/>
      <use xlink:href="#ArialMT-28" transform="translate(405.761719 0)"/>
      <use xlink:href="#ArialMT-33" transform="translate(439.0625 0)"/>
      <use xlink:href="#ArialMT-30" transform="translate(494.677734 0)"/>
      <use xlink:href="#ArialMT-37" transform="translate(550.292969 0)"/>
      <use xlink:href="#ArialMT-32" transform="translate(605.908203 0)"/>
      <use xlink:href="#ArialMT-2f" transform="translate(661.523438 0)"/>
      <use xlink:href="#ArialMT-32" transform="translate(689.306641 0)"/>
      <use xlink:href="#ArialMT-2f" transform="translate(744.921875 0)"/>
      <use xlink:href="#ArialMT-34" transform="translate(772.705078 0)"/>
      <use xlink:href="#ArialMT-29" transform="translate(828.320312 0)"/>
      <use xlink:href="#ArialMT-20" transform="translate(861.621094 0)"/>
      <use xlink:href="#ArialMT-5f" transform="translate(889.404297 0)"/>
      <use xlink:href="#ArialMT-67" transform="translate(945.019531 0)"/>
      <use xlink:href="#ArialMT-3d" transform="translate(1000.634766 0)"/>
      <use xlink:href="#ArialMT-33" transform="translate(1059.033203 0)"/>
      <use xlink:href="#ArialMT-2c" transform="translate(1114.648438 0)"/>
      <use xlink:href="#ArialMT-6b" transform="translate(1142.431641 0)"/>
      <use xlink:href="#ArialMT-3d" transform="translate(1192.431641 0)"/>
      <use xlink:href="#ArialMT-33" transform="translate(1250.830078 0)"/>
      <use xlink:href="#ArialMT-5f" transform="translate(1306.445312 0)"/>
     </g>
    </g>
    <g id="line2d_34">
     <path d="M 62.981406 414.715 
L 73.981406 414.715 
L 84.981406 414.715 
" style="fill: none; stroke: #937860; stroke-width: 1.5; stroke-linecap: round"/>
     <g>
      <use xlink:href="#mea5558ced7" x="73.981406" y="414.715" style="fill: #937860; stroke: #ffffff; stroke-width: 0.75"/>
     </g>
    </g>
    <g id="text_26">
     <!-- sfnnv9 (referencyjny) -->
     <g style="fill: #262626" transform="translate(93.781406 418.565) scale(0.11 -0.11)">
      <defs>
       <path id="ArialMT-66" d="M 556 0 
L 556 2881 
L 59 2881 
L 59 3319 
L 556 3319 
L 556 3672 
Q 556 4006 616 4169 
Q 697 4388 901 4523 
Q 1106 4659 1475 4659 
Q 1713 4659 2000 4603 
L 1916 4113 
Q 1741 4144 1584 4144 
Q 1328 4144 1222 4034 
Q 1116 3925 1116 3625 
L 1116 3319 
L 1763 3319 
L 1763 2881 
L 1116 2881 
L 1116 0 
L 556 0 
z
" transform="scale(0.015625)"/>
       <path id="ArialMT-76" d="M 1344 0 
L 81 3319 
L 675 3319 
L 1388 1331 
Q 1503 1009 1600 663 
Q 1675 925 1809 1294 
L 2547 3319 
L 3125 3319 
L 1869 0 
L 1344 0 
z
" transform="scale(0.015625)"/>
       <path id="ArialMT-6a" d="M 419 3928 
L 419 4581 
L 981 4581 
L 981 3928 
L 419 3928 
z
M -294 -1288 
L -188 -809 
Q -19 -853 78 -853 
Q 250 -853 334 -739 
Q 419 -625 419 -169 
L 419 3319 
L 981 3319 
L 981 -181 
Q 981 -794 822 -1034 
Q 619 -1347 147 -1347 
Q -81 -1347 -294 -1288 
z
" transform="scale(0.015625)"/>
      </defs>
      <use xlink:href="#ArialMT-73"/>
      <use xlink:href="#ArialMT-66" transform="translate(50 0)"/>
      <use xlink:href="#ArialMT-6e" transform="translate(77.783203 0)"/>
      <use xlink:href="#ArialMT-6e" transform="translate(133.398438 0)"/>
      <use xlink:href="#ArialMT-76" transform="translate(189.013672 0)"/>
      <use xlink:href="#ArialMT-39" transform="translate(239.013672 0)"/>
      <use xlink:href="#ArialMT-20" transform="translate(294.628906 0)"/>
      <use xlink:href="#ArialMT-28" transform="translate(322.412109 0)"/>
      <use xlink:href="#ArialMT-72" transform="translate(355.712891 0)"/>
      <use xlink:href="#ArialMT-65" transform="translate(389.013672 0)"/>
      <use xlink:href="#ArialMT-66" transform="translate(444.628906 0)"/>
      <use xlink:href="#ArialMT-65" transform="translate(472.412109 0)"/>
      <use xlink:href="#ArialMT-72" transform="translate(528.027344 0)"/>
      <use xlink:href="#ArialMT-65" transform="translate(561.328125 0)"/>
      <use xlink:href="#ArialMT-6e" transform="translate(616.943359 0)"/>
      <use xlink:href="#ArialMT-63" transform="translate(672.558594 0)"/>
      <use xlink:href="#ArialMT-79" transform="translate(722.558594 0)"/>
      <use xlink:href="#ArialMT-6a" transform="translate(772.558594 0)"/>
      <use xlink:href="#ArialMT-6e" transform="translate(794.775391 0)"/>
      <use xlink:href="#ArialMT-79" transform="translate(850.390625 0)"/>
      <use xlink:href="#ArialMT-29" transform="translate(900.390625 0)"/>
     </g>
    </g>
    <g id="line2d_35">
     <path d="M 62.981406 430.40375 
L 73.981406 430.40375 
L 84.981406 430.40375 
" style="fill: none; stroke-dasharray: 7.4,3.2; stroke-dashoffset: 0; stroke: #000000; stroke-width: 2"/>
     <defs>
      <path id="me85445d6be" d="M -2 2 
L 2 2 
L 2 -2 
L -2 -2 
z
" style="stroke: #000000; stroke-linejoin: miter"/>
     </defs>
     <g>
      <use xlink:href="#me85445d6be" x="73.981406" y="430.40375" style="stroke: #000000; stroke-linejoin: miter"/>
     </g>
    </g>
    <g id="text_27">
     <!-- Stockfish 17.1 -->
     <g style="fill: #262626" transform="translate(93.781406 434.25375) scale(0.11 -0.11)">
      <defs>
       <path id="ArialMT-53" d="M 288 1472 
L 859 1522 
Q 900 1178 1048 958 
Q 1197 738 1509 602 
Q 1822 466 2213 466 
Q 2559 466 2825 569 
Q 3091 672 3220 851 
Q 3350 1031 3350 1244 
Q 3350 1459 3225 1620 
Q 3100 1781 2813 1891 
Q 2628 1963 1997 2114 
Q 1366 2266 1113 2400 
Q 784 2572 623 2826 
Q 463 3081 463 3397 
Q 463 3744 659 4045 
Q 856 4347 1234 4503 
Q 1613 4659 2075 4659 
Q 2584 4659 2973 4495 
Q 3363 4331 3572 4012 
Q 3781 3694 3797 3291 
L 3216 3247 
Q 3169 3681 2898 3903 
Q 2628 4125 2100 4125 
Q 1550 4125 1298 3923 
Q 1047 3722 1047 3438 
Q 1047 3191 1225 3031 
Q 1400 2872 2139 2705 
Q 2878 2538 3153 2413 
Q 3553 2228 3743 1945 
Q 3934 1663 3934 1294 
Q 3934 928 3725 604 
Q 3516 281 3123 101 
Q 2731 -78 2241 -78 
Q 1619 -78 1198 103 
Q 778 284 539 648 
Q 300 1013 288 1472 
z
" transform="scale(0.015625)"/>
       <path id="ArialMT-74" d="M 1650 503 
L 1731 6 
Q 1494 -44 1306 -44 
Q 1000 -44 831 53 
Q 663 150 594 308 
Q 525 466 525 972 
L 525 2881 
L 113 2881 
L 113 3319 
L 525 3319 
L 525 4141 
L 1084 4478 
L 1084 3319 
L 1650 3319 
L 1650 2881 
L 1084 2881 
L 1084 941 
Q 1084 700 1114 631 
Q 1144 563 1211 522 
Q 1278 481 1403 481 
Q 1497 481 1650 503 
z
" transform="scale(0.015625)"/>
       <path id="ArialMT-68" d="M 422 0 
L 422 4581 
L 984 4581 
L 984 2938 
Q 1378 3394 1978 3394 
Q 2347 3394 2619 3248 
Q 2891 3103 3008 2847 
Q 3125 2591 3125 2103 
L 3125 0 
L 2563 0 
L 2563 2103 
Q 2563 2525 2380 2717 
Q 2197 2909 1863 2909 
Q 1613 2909 1392 2779 
Q 1172 2650 1078 2428 
Q 984 2206 984 1816 
L 984 0 
L 422 0 
z
" transform="scale(0.015625)"/>
      </defs>
      <use xlink:href="#ArialMT-53"/>
      <use xlink:href="#ArialMT-74" transform="translate(66.699219 0)"/>
      <use xlink:href="#ArialMT-6f" transform="translate(94.482422 0)"/>
      <use xlink:href="#ArialMT-63" transform="translate(150.097656 0)"/>
      <use xlink:href="#ArialMT-6b" transform="translate(200.097656 0)"/>
      <use xlink:href="#ArialMT-66" transform="translate(250.097656 0)"/>
      <use xlink:href="#ArialMT-69" transform="translate(277.880859 0)"/>
      <use xlink:href="#ArialMT-73" transform="translate(300.097656 0)"/>
      <use xlink:href="#ArialMT-68" transform="translate(350.097656 0)"/>
      <use xlink:href="#ArialMT-20" transform="translate(405.712891 0)"/>
      <use xlink:href="#ArialMT-31" transform="translate(433.496094 0)"/>
      <use xlink:href="#ArialMT-37" transform="translate(489.111328 0)"/>
      <use xlink:href="#ArialMT-2e" transform="translate(544.726562 0)"/>
      <use xlink:href="#ArialMT-31" transform="translate(572.509766 0)"/>
     </g>
    </g>
   </g>
   <g id="line2d_36">
    <path d="M 88.930043 293.71558 
L 327.920952 341.774026 
L 566.911861 398.24909 
L 805.90277 415.2674 
" clip-path="url(#p9ac9c3a14d)" style="fill: none; stroke-dasharray: 7.4,3.2; stroke-dashoffset: 0; stroke: #000000; stroke-width: 2"/>
    <g clip-path="url(#p9ac9c3a14d)">
     <use xlink:href="#me85445d6be" x="88.930043" y="293.71558" style="stroke: #000000; stroke-linejoin: miter"/>
     <use xlink:href="#me85445d6be" x="327.920952" y="341.774026" style="stroke: #000000; stroke-linejoin: miter"/>
     <use xlink:href="#me85445d6be" x="566.911861" y="398.24909" style="stroke: #000000; stroke-linejoin: miter"/>
     <use xlink:href="#me85445d6be" x="805.90277" y="415.2674" style="stroke: #000000; stroke-linejoin: miter"/>
    </g>
   </g>
  </g>
 </g>
 <defs>
  <clipPath id="p9ac9c3a14d">
   <rect x="53.081406" y="22.32" width="788.67" height="424.02"/>
  </clipPath>
 </defs>
</svg>
