<?xml version="1.0" encoding="utf-8" standalone="no"?>
<!DOCTYPE svg PUBLIC "-//W3C//DTD SVG 1.1//EN"
  "http://www.w3.org/Graphics/SVG/1.1/DTD/svg11.dtd">
<svg xmlns:xlink="http://www.w3.org/1999/xlink" width="846.8845pt" height="487.618pt" viewBox="0 0 846.8845 487.618" xmlns="http://www.w3.org/2000/svg" version="1.1">
 <metadata>
  <rdf:RDF xmlns:dc="http://purl.org/dc/elements/1.1/" xmlns:cc="http://creativecommons.org/ns#" xmlns:rdf="http://www.w3.org/1999/02/22-rdf-syntax-ns#">
   <cc:Work>
    <dc:type rdf:resource="http://purl.org/dc/dcmitype/StillImage"/>
    <dc:date>2025-12-06T13:23:46.014473</dc:date>
    <dc:format>image/svg+xml</dc:format>
    <dc:creator>
     <cc:Agent>
      <dc:title>Matplotlib v3.10.7, https://matplotlib.org/</dc:title>
     </cc:Agent>
    </dc:creator>
   </cc:Work>
  </rdf:RDF>
 </metadata>
 <defs>
  <style type="text/css">*{stroke-linejoin: round; stroke-linecap: butt}</style>
 </defs>
 <g id="figure_1">
  <g id="patch_1">
   <path d="M 0 487.618 
L 846.8845 487.618 
L 846.8845 0 
L 0 0 
z
" style="fill: #ffffff"/>
  </g>
  <g id="axes_1">
   <g id="patch_2">
    <path d="M 70.8385 441.7935 
L 839.6845 441.7935 
L 839.6845 39.3575 
L 70.8385 39.3575 
z
" style="fill: #ffffff"/>
   </g>
   <g id="matplotlib.axis_1">
    <g id="xtick_1">
     <g id="line2d_1">
      <path d="M 103.783519 441.7935 
L 103.783519 39.3575 
" clip-path="url(#p22042fb1a6)" style="fill: none; stroke-dasharray: 2.96,1.28; stroke-dashoffset: 0; stroke: #cccccc; stroke-opacity: 0.3; stroke-width: 0.8"/>
     </g>
     <g id="text_1">
      <!-- 0.0 -->
      <g style="fill: #262626" transform="translate(93.287457 460.123437) scale(0.132 -0.132)">
       <defs>
        <path id="DejaVuSans-30" d="M 2034 4250 
Q 1547 4250 1301 3770 
Q 1056 3291 1056 2328 
Q 1056 1369 1301 889 
Q 1547 409 2034 409 
Q 2525 409 2770 889 
Q 3016 1369 3016 2328 
Q 3016 3291 2770 3770 
Q 2525 4250 2034 4250 
z
M 2034 4750 
Q 2819 4750 3233 4129 
Q 3647 3509 3647 2328 
Q 3647 1150 3233 529 
Q 2819 -91 2034 -91 
Q 1250 -91 836 529 
Q 422 1150 422 2328 
Q 422 3509 836 4129 
Q 1250 4750 2034 4750 
z
" transform="scale(0.015625)"/>
        <path id="DejaVuSans-2e" d="M 684 794 
L 1344 794 
L 1344 0 
L 684 0 
L 684 794 
z
" transform="scale(0.015625)"/>
       </defs>
       <use xlink:href="#DejaVuSans-30"/>
       <use xlink:href="#DejaVuSans-2e" transform="translate(63.623047 0)"/>
       <use xlink:href="#DejaVuSans-30" transform="translate(95.410156 0)"/>
      </g>
     </g>
    </g>
    <g id="xtick_2">
     <g id="line2d_2">
      <path d="M 219.549868 441.7935 
L 219.549868 39.3575 
" clip-path="url(#p22042fb1a6)" style="fill: none; stroke-dasharray: 2.96,1.28; stroke-dashoffset: 0; stroke: #cccccc; stroke-opacity: 0.3; stroke-width: 0.8"/>
     </g>
     <g id="text_2">
      <!-- 0.5 -->
      <g style="fill: #262626" transform="translate(209.053806 460.123437) scale(0.132 -0.132)">
       <defs>
        <path id="DejaVuSans-35" d="M 691 4666 
L 3169 4666 
L 3169 4134 
L 1269 4134 
L 1269 2991 
Q 1406 3038 1543 3061 
Q 1681 3084 1819 3084 
Q 2600 3084 3056 2656 
Q 3513 2228 3513 1497 
Q 3513 744 3044 326 
Q 2575 -91 1722 -91 
Q 1428 -91 1123 -41 
Q 819 9 494 109 
L 494 744 
Q 775 591 1075 516 
Q 1375 441 1709 441 
Q 2250 441 2565 725 
Q 2881 1009 2881 1497 
Q 2881 1984 2565 2268 
Q 2250 2553 1709 2553 
Q 1456 2553 1204 2497 
Q 953 2441 691 2322 
L 691 4666 
z
" transform="scale(0.015625)"/>
       </defs>
       <use xlink:href="#DejaVuSans-30"/>
       <use xlink:href="#DejaVuSans-2e" transform="translate(63.623047 0)"/>
       <use xlink:href="#DejaVuSans-35" transform="translate(95.410156 0)"/>
      </g>
     </g>
    </g>
    <g id="xtick_3">
     <g id="line2d_3">
      <path d="M 335.316217 441.7935 
L 335.316217 39.3575 
" clip-path="url(#p22042fb1a6)" style="fill: none; stroke-dasharray: 2.96,1.28; stroke-dashoffset: 0; stroke: #cccccc; stroke-opacity: 0.3; stroke-width: 0.8"/>
     </g>
     <g id="text_3">
      <!-- 1.0 -->
      <g style="fill: #262626" transform="translate(324.820155 460.123437) scale(0.132 -0.132)">
       <defs>
        <path id="DejaVuSans-31" d="M 794 531 
L 1825 531 
L 1825 4091 
L 703 3866 
L 703 4441 
L 1819 4666 
L 2450 4666 
L 2450 531 
L 3481 531 
L 3481 0 
L 794 0 
L 794 531 
z
" transform="scale(0.015625)"/>
       </defs>
       <use xlink:href="#DejaVuSans-31"/>
       <use xlink:href="#DejaVuSans-2e" transform="translate(63.623047 0)"/>
       <use xlink:href="#DejaVuSans-30" transform="translate(95.410156 0)"/>
      </g>
     </g>
    </g>
    <g id="xtick_4">
     <g id="line2d_4">
      <path d="M 451.082566 441.7935 
L 451.082566 39.3575 
" clip-path="url(#p22042fb1a6)" style="fill: none; stroke-dasharray: 2.96,1.28; stroke-dashoffset: 0; stroke: #cccccc; stroke-opacity: 0.3; stroke-width: 0.8"/>
     </g>
     <g id="text_4">
      <!-- 1.5 -->
      <g style="fill: #262626" transform="translate(440.586504 460.123437) scale(0.132 -0.132)">
       <use xlink:href="#DejaVuSans-31"/>
       <use xlink:href="#DejaVuSans-2e" transform="translate(63.623047 0)"/>
       <use xlink:href="#DejaVuSans-35" transform="translate(95.410156 0)"/>
      </g>
     </g>
    </g>
    <g id="xtick_5">
     <g id="line2d_5">
      <path d="M 566.848915 441.7935 
L 566.848915 39.3575 
" clip-path="url(#p22042fb1a6)" style="fill: none; stroke-dasharray: 2.96,1.28; stroke-dashoffset: 0; stroke: #cccccc; stroke-opacity: 0.3; stroke-width: 0.8"/>
     </g>
     <g id="text_5">
      <!-- 2.0 -->
      <g style="fill: #262626" transform="translate(556.352853 460.123437) scale(0.132 -0.132)">
       <defs>
        <path id="DejaVuSans-32" d="M 1228 531 
L 3431 531 
L 3431 0 
L 469 0 
L 469 531 
Q 828 903 1448 1529 
Q 2069 2156 2228 2338 
Q 2531 2678 2651 2914 
Q 2772 3150 2772 3378 
Q 2772 3750 2511 3984 
Q 2250 4219 1831 4219 
Q 1534 4219 1204 4116 
Q 875 4013 500 3803 
L 500 4441 
Q 881 4594 1212 4672 
Q 1544 4750 1819 4750 
Q 2544 4750 2975 4387 
Q 3406 4025 3406 3419 
Q 3406 3131 3298 2873 
Q 3191 2616 2906 2266 
Q 2828 2175 2409 1742 
Q 1991 1309 1228 531 
z
" transform="scale(0.015625)"/>
       </defs>
       <use xlink:href="#DejaVuSans-32"/>
       <use xlink:href="#DejaVuSans-2e" transform="translate(63.623047 0)"/>
       <use xlink:href="#DejaVuSans-30" transform="translate(95.410156 0)"/>
      </g>
     </g>
    </g>
    <g id="xtick_6">
     <g id="line2d_6">
      <path d="M 682.615264 441.7935 
L 682.615264 39.3575 
" clip-path="url(#p22042fb1a6)" style="fill: none; stroke-dasharray: 2.96,1.28; stroke-dashoffset: 0; stroke: #cccccc; stroke-opacity: 0.3; stroke-width: 0.8"/>
     </g>
     <g id="text_6">
      <!-- 2.5 -->
      <g style="fill: #262626" transform="translate(672.119202 460.123437) scale(0.132 -0.132)">
       <use xlink:href="#DejaVuSans-32"/>
       <use xlink:href="#DejaVuSans-2e" transform="translate(63.623047 0)"/>
       <use xlink:href="#DejaVuSans-35" transform="translate(95.410156 0)"/>
      </g>
     </g>
    </g>
    <g id="xtick_7">
     <g id="line2d_7">
      <path d="M 798.381614 441.7935 
L 798.381614 39.3575 
" clip-path="url(#p22042fb1a6)" style="fill: none; stroke-dasharray: 2.96,1.28; stroke-dashoffset: 0; stroke: #cccccc; stroke-opacity: 0.3; stroke-width: 0.8"/>
     </g>
     <g id="text_7">
      <!-- 3.0 -->
      <g style="fill: #262626" transform="translate(787.885551 460.123437) scale(0.132 -0.132)">
       <defs>
        <path id="DejaVuSans-33" d="M 2597 2516 
Q 3050 2419 3304 2112 
Q 3559 1806 3559 1356 
Q 3559 666 3084 287 
Q 2609 -91 1734 -91 
Q 1441 -91 1130 -33 
Q 819 25 488 141 
L 488 750 
Q 750 597 1062 519 
Q 1375 441 1716 441 
Q 2309 441 2620 675 
Q 2931 909 2931 1356 
Q 2931 1769 2642 2001 
Q 2353 2234 1838 2234 
L 1294 2234 
L 1294 2753 
L 1863 2753 
Q 2328 2753 2575 2939 
Q 2822 3125 2822 3475 
Q 2822 3834 2567 4026 
Q 2313 4219 1838 4219 
Q 1578 4219 1281 4162 
Q 984 4106 628 3988 
L 628 4550 
Q 988 4650 1302 4700 
Q 1616 4750 1894 4750 
Q 2613 4750 3031 4423 
Q 3450 4097 3450 3541 
Q 3450 3153 3228 2886 
Q 3006 2619 2597 2516 
z
" transform="scale(0.015625)"/>
       </defs>
       <use xlink:href="#DejaVuSans-33"/>
       <use xlink:href="#DejaVuSans-2e" transform="translate(63.623047 0)"/>
       <use xlink:href="#DejaVuSans-30" transform="translate(95.410156 0)"/>
      </g>
     </g>
    </g>
    <g id="text_8">
     <!-- Step -->
     <g style="fill: #262626" transform="translate(437.116188 477.506437) scale(0.14 -0.14)">
      <defs>
       <path id="DejaVuSans-Bold-53" d="M 3834 4519 
L 3834 3531 
Q 3450 3703 3084 3790 
Q 2719 3878 2394 3878 
Q 1963 3878 1756 3759 
Q 1550 3641 1550 3391 
Q 1550 3203 1689 3098 
Q 1828 2994 2194 2919 
L 2706 2816 
Q 3484 2659 3812 2340 
Q 4141 2022 4141 1434 
Q 4141 663 3683 286 
Q 3225 -91 2284 -91 
Q 1841 -91 1394 -6 
Q 947 78 500 244 
L 500 1259 
Q 947 1022 1364 901 
Q 1781 781 2169 781 
Q 2563 781 2772 912 
Q 2981 1044 2981 1288 
Q 2981 1506 2839 1625 
Q 2697 1744 2272 1838 
L 1806 1941 
Q 1106 2091 782 2419 
Q 459 2747 459 3303 
Q 459 4000 909 4375 
Q 1359 4750 2203 4750 
Q 2588 4750 2994 4692 
Q 3400 4634 3834 4519 
z
" transform="scale(0.015625)"/>
       <path id="DejaVuSans-Bold-74" d="M 1759 4494 
L 1759 3500 
L 2913 3500 
L 2913 2700 
L 1759 2700 
L 1759 1216 
Q 1759 972 1856 886 
Q 1953 800 2241 800 
L 2816 800 
L 2816 0 
L 1856 0 
Q 1194 0 917 276 
Q 641 553 641 1216 
L 641 2700 
L 84 2700 
L 84 3500 
L 641 3500 
L 641 4494 
L 1759 4494 
z
" transform="scale(0.015625)"/>
       <path id="DejaVuSans-Bold-65" d="M 4031 1759 
L 4031 1441 
L 1416 1441 
Q 1456 1047 1700 850 
Q 1944 653 2381 653 
Q 2734 653 3104 758 
Q 3475 863 3866 1075 
L 3866 213 
Q 3469 63 3072 -14 
Q 2675 -91 2278 -91 
Q 1328 -91 801 392 
Q 275 875 275 1747 
Q 275 2603 792 3093 
Q 1309 3584 2216 3584 
Q 3041 3584 3536 3087 
Q 4031 2591 4031 1759 
z
M 2881 2131 
Q 2881 2450 2695 2645 
Q 2509 2841 2209 2841 
Q 1884 2841 1681 2658 
Q 1478 2475 1428 2131 
L 2881 2131 
z
" transform="scale(0.015625)"/>
       <path id="DejaVuSans-Bold-70" d="M 1656 506 
L 1656 -1331 
L 538 -1331 
L 538 3500 
L 1656 3500 
L 1656 2988 
Q 1888 3294 2169 3439 
Q 2450 3584 2816 3584 
Q 3463 3584 3878 3070 
Q 4294 2556 4294 1747 
Q 4294 938 3878 423 
Q 3463 -91 2816 -91 
Q 2450 -91 2169 54 
Q 1888 200 1656 506 
z
M 2400 2772 
Q 2041 2772 1848 2508 
Q 1656 2244 1656 1747 
Q 1656 1250 1848 986 
Q 2041 722 2400 722 
Q 2759 722 2948 984 
Q 3138 1247 3138 1747 
Q 3138 2247 2948 2509 
Q 2759 2772 2400 2772 
z
" transform="scale(0.015625)"/>
      </defs>
      <use xlink:href="#DejaVuSans-Bold-53"/>
      <use xlink:href="#DejaVuSans-Bold-74" transform="translate(72.021484 0)"/>
      <use xlink:href="#DejaVuSans-Bold-65" transform="translate(119.824219 0)"/>
      <use xlink:href="#DejaVuSans-Bold-70" transform="translate(187.646484 0)"/>
     </g>
    </g>
    <g id="text_9">
     <!-- 1e6 -->
     <g style="fill: #262626" transform="translate(814.765375 475.898562) scale(0.132 -0.132)">
      <defs>
       <path id="DejaVuSans-65" d="M 3597 1894 
L 3597 1613 
L 953 1613 
Q 991 1019 1311 708 
Q 1631 397 2203 397 
Q 2534 397 2845 478 
Q 3156 559 3463 722 
L 3463 178 
Q 3153 47 2828 -22 
Q 2503 -91 2169 -91 
Q 1331 -91 842 396 
Q 353 884 353 1716 
Q 353 2575 817 3079 
Q 1281 3584 2069 3584 
Q 2775 3584 3186 3129 
Q 3597 2675 3597 1894 
z
M 3022 2063 
Q 3016 2534 2758 2815 
Q 2500 3097 2075 3097 
Q 1594 3097 1305 2825 
Q 1016 2553 972 2059 
L 3022 2063 
z
" transform="scale(0.015625)"/>
       <path id="DejaVuSans-36" d="M 2113 2584 
Q 1688 2584 1439 2293 
Q 1191 2003 1191 1497 
Q 1191 994 1439 701 
Q 1688 409 2113 409 
Q 2538 409 2786 701 
Q 3034 994 3034 1497 
Q 3034 2003 2786 2293 
Q 2538 2584 2113 2584 
z
M 3366 4563 
L 3366 3988 
Q 3128 4100 2886 4159 
Q 2644 4219 2406 4219 
Q 1781 4219 1451 3797 
Q 1122 3375 1075 2522 
Q 1259 2794 1537 2939 
Q 1816 3084 2150 3084 
Q 2853 3084 3261 2657 
Q 3669 2231 3669 1497 
Q 3669 778 3244 343 
Q 2819 -91 2113 -91 
Q 1303 -91 875 529 
Q 447 1150 447 2328 
Q 447 3434 972 4092 
Q 1497 4750 2381 4750 
Q 2619 4750 2861 4703 
Q 3103 4656 3366 4563 
z
" transform="scale(0.015625)"/>
      </defs>
      <use xlink:href="#DejaVuSans-31"/>
      <use xlink:href="#DejaVuSans-65" transform="translate(63.623047 0)"/>
      <use xlink:href="#DejaVuSans-36" transform="translate(125.146484 0)"/>
     </g>
    </g>
   </g>
   <g id="matplotlib.axis_2">
    <g id="ytick_1">
     <g id="line2d_8">
      <path d="M 70.8385 385.571275 
L 839.6845 385.571275 
" clip-path="url(#p22042fb1a6)" style="fill: none; stroke-dasharray: 2.96,1.28; stroke-dashoffset: 0; stroke: #cccccc; stroke-opacity: 0.3; stroke-width: 0.8"/>
     </g>
     <g id="text_10">
      <!-- 0.003 -->
      <g style="fill: #262626" transform="translate(24.749375 390.586244) scale(0.132 -0.132)">
       <use xlink:href="#DejaVuSans-30"/>
       <use xlink:href="#DejaVuSans-2e" transform="translate(63.623047 0)"/>
       <use xlink:href="#DejaVuSans-30" transform="translate(95.410156 0)"/>
       <use xlink:href="#DejaVuSans-30" transform="translate(159.033203 0)"/>
       <use xlink:href="#DejaVuSans-33" transform="translate(222.65625 0)"/>
      </g>
     </g>
    </g>
    <g id="ytick_2">
     <g id="line2d_9">
      <path d="M 70.8385 298.96234 
L 839.6845 298.96234 
" clip-path="url(#p22042fb1a6)" style="fill: none; stroke-dasharray: 2.96,1.28; stroke-dashoffset: 0; stroke: #cccccc; stroke-opacity: 0.3; stroke-width: 0.8"/>
     </g>
     <g id="text_11">
      <!-- 0.004 -->
      <g style="fill: #262626" transform="translate(24.749375 303.977309) scale(0.132 -0.132)">
       <defs>
        <path id="DejaVuSans-34" d="M 2419 4116 
L 825 1625 
L 2419 1625 
L 2419 4116 
z
M 2253 4666 
L 3047 4666 
L 3047 1625 
L 3713 1625 
L 3713 1100 
L 3047 1100 
L 3047 0 
L 2419 0 
L 2419 1100 
L 313 1100 
L 313 1709 
L 2253 4666 
z
" transform="scale(0.015625)"/>
       </defs>
       <use xlink:href="#DejaVuSans-30"/>
       <use xlink:href="#DejaVuSans-2e" transform="translate(63.623047 0)"/>
       <use xlink:href="#DejaVuSans-30" transform="translate(95.410156 0)"/>
       <use xlink:href="#DejaVuSans-30" transform="translate(159.033203 0)"/>
       <use xlink:href="#DejaVuSans-34" transform="translate(222.65625 0)"/>
      </g>
     </g>
    </g>
    <g id="ytick_3">
     <g id="line2d_10">
      <path d="M 70.8385 212.353405 
L 839.6845 212.353405 
" clip-path="url(#p22042fb1a6)" style="fill: none; stroke-dasharray: 2.96,1.28; stroke-dashoffset: 0; stroke: #cccccc; stroke-opacity: 0.3; stroke-width: 0.8"/>
     </g>
     <g id="text_12">
      <!-- 0.005 -->
      <g style="fill: #262626" transform="translate(24.749375 217.368373) scale(0.132 -0.132)">
       <use xlink:href="#DejaVuSans-30"/>
       <use xlink:href="#DejaVuSans-2e" transform="translate(63.623047 0)"/>
       <use xlink:href="#DejaVuSans-30" transform="translate(95.410156 0)"/>
       <use xlink:href="#DejaVuSans-30" transform="translate(159.033203 0)"/>
       <use xlink:href="#DejaVuSans-35" transform="translate(222.65625 0)"/>
      </g>
     </g>
    </g>
    <g id="ytick_4">
     <g id="line2d_11">
      <path d="M 70.8385 125.744469 
L 839.6845 125.744469 
" clip-path="url(#p22042fb1a6)" style="fill: none; stroke-dasharray: 2.96,1.28; stroke-dashoffset: 0; stroke: #cccccc; stroke-opacity: 0.3; stroke-width: 0.8"/>
     </g>
     <g id="text_13">
      <!-- 0.006 -->
      <g style="fill: #262626" transform="translate(24.749375 130.759438) scale(0.132 -0.132)">
       <use xlink:href="#DejaVuSans-30"/>
       <use xlink:href="#DejaVuSans-2e" transform="translate(63.623047 0)"/>
       <use xlink:href="#DejaVuSans-30" transform="translate(95.410156 0)"/>
       <use xlink:href="#DejaVuSans-30" transform="translate(159.033203 0)"/>
       <use xlink:href="#DejaVuSans-36" transform="translate(222.65625 0)"/>
      </g>
     </g>
    </g>
    <g id="text_14">
     <!-- Błąd -->
     <g style="fill: #262626" transform="translate(17.837812 258.242844) rotate(-90) scale(0.14 -0.14)">
      <defs>
       <path id="DejaVuSans-Bold-42" d="M 2456 2859 
Q 2741 2859 2887 2984 
Q 3034 3109 3034 3353 
Q 3034 3594 2887 3720 
Q 2741 3847 2456 3847 
L 1791 3847 
L 1791 2859 
L 2456 2859 
z
M 2497 819 
Q 2859 819 3042 972 
Q 3225 1125 3225 1434 
Q 3225 1738 3044 1889 
Q 2863 2041 2497 2041 
L 1791 2041 
L 1791 819 
L 2497 819 
z
M 3616 2497 
Q 4003 2384 4215 2081 
Q 4428 1778 4428 1338 
Q 4428 663 3972 331 
Q 3516 0 2584 0 
L 588 0 
L 588 4666 
L 2394 4666 
Q 3366 4666 3802 4372 
Q 4238 4078 4238 3431 
Q 4238 3091 4078 2852 
Q 3919 2613 3616 2497 
z
" transform="scale(0.015625)"/>
       <path id="DejaVuSans-Bold-142" d="M 622 4863 
L 1747 4863 
L 1747 3297 
L 2150 3572 
L 2497 3091 
L 1747 2578 
L 1747 0 
L 622 0 
L 622 2003 
L 231 1734 
L -116 2216 
L 622 2725 
L 622 4863 
z
" transform="scale(0.015625)"/>
       <path id="DejaVuSans-Bold-105" d="M 2704 0 
L 3144 0 
Q 2988 -209 2928 -323 
Q 2869 -438 2869 -519 
Q 2869 -641 2961 -717 
Q 3054 -794 3207 -794 
Q 3329 -794 3449 -770 
Q 3569 -747 3694 -697 
L 3694 -1184 
Q 3522 -1219 3375 -1236 
Q 3229 -1253 3101 -1253 
Q 2741 -1253 2549 -1109 
Q 2357 -966 2357 -697 
Q 2357 -531 2441 -361 
Q 2526 -191 2704 0 
z
M 2106 1575 
Q 1756 1575 1579 1456 
Q 1403 1338 1403 1106 
Q 1403 894 1545 773 
Q 1688 653 1941 653 
Q 2256 653 2472 879 
Q 2688 1106 2688 1447 
L 2688 1575 
L 2106 1575 
z
M 3816 1997 
L 3816 0 
L 2688 0 
L 2688 519 
Q 2463 200 2181 54 
Q 1900 -91 1497 -91 
Q 953 -91 614 226 
Q 275 544 275 1050 
Q 275 1666 698 1953 
Q 1122 2241 2028 2241 
L 2688 2241 
L 2688 2328 
Q 2688 2594 2478 2717 
Q 2269 2841 1825 2841 
Q 1466 2841 1156 2769 
Q 847 2697 581 2553 
L 581 3406 
Q 941 3494 1303 3539 
Q 1666 3584 2028 3584 
Q 2975 3584 3395 3211 
Q 3816 2838 3816 1997 
z
" transform="scale(0.015625)"/>
       <path id="DejaVuSans-Bold-64" d="M 2919 2988 
L 2919 4863 
L 4044 4863 
L 4044 0 
L 2919 0 
L 2919 506 
Q 2688 197 2409 53 
Q 2131 -91 1766 -91 
Q 1119 -91 703 423 
Q 288 938 288 1747 
Q 288 2556 703 3070 
Q 1119 3584 1766 3584 
Q 2128 3584 2408 3439 
Q 2688 3294 2919 2988 
z
M 2181 722 
Q 2541 722 2730 984 
Q 2919 1247 2919 1747 
Q 2919 2247 2730 2509 
Q 2541 2772 2181 2772 
Q 1825 2772 1636 2509 
Q 1447 2247 1447 1747 
Q 1447 1247 1636 984 
Q 1825 722 2181 722 
z
" transform="scale(0.015625)"/>
      </defs>
      <use xlink:href="#DejaVuSans-Bold-42"/>
      <use xlink:href="#DejaVuSans-Bold-142" transform="translate(76.220703 0)"/>
      <use xlink:href="#DejaVuSans-Bold-105" transform="translate(113.330078 0)"/>
      <use xlink:href="#DejaVuSans-Bold-64" transform="translate(180.810547 0)"/>
     </g>
    </g>
   </g>
   <g id="line2d_12">
    <path d="M 105.786045 155.648792 
L 106.619563 171.2235 
L 106.793213 185.58887 
L 108.448671 188.305128 
L 109.177999 195.546768 
L 109.698948 202.514723 
L 110.694539 228.186873 
L 111.41229 231.099646 
L 112.639413 227.362774 
L 113.102479 231.914178 
L 113.82023 234.482438 
L 115.545149 238.851167 
L 115.672492 238.709926 
L 115.799835 245.009666 
L 116.818579 248.649678 
L 116.899615 251.284464 
L 117.5016 258.869213 
L 118.288811 261.654335 
L 118.508767 263.758523 
L 120.198956 268.788897 
L 120.673598 269.596307 
L 121.090357 270.896918 
L 121.912298 277.999275 
L 123.127845 279.579585 
L 126.253536 280.611328 
L 126.485069 283.536355 
L 131.995547 285.543723 
L 132.296539 287.555185 
L 132.771181 289.115981 
L 133.627852 291.021162 
L 134.39191 289.819364 
L 134.866552 291.942641 
L 134.970742 291.609858 
L 135.248581 295.672357 
L 135.83899 295.065779 
L 136.035792 297.039334 
L 138.2122 299.311295 
L 139.48563 301.033078 
L 139.728739 301.133146 
L 139.740316 303.742565 
L 140.203381 304.326319 
L 141.036899 304.936799 
L 141.314738 306.446338 
L 141.592577 306.158515 
L 142.646051 307.595678 
L 143.201729 309.813178 
L 144.313086 310.509988 
L 144.614079 311.151294 
L 145.077144 310.340887 
L 145.47075 312.224967 
L 145.655976 314.540097 
L 146.095888 316.947421 
L 146.257961 315.071034 
L 146.292691 318.750986 
L 147.577697 322.585084 
L 148.341755 324.195815 
L 149.11739 324.481239 
L 150.367666 325.704177 
L 151.363257 326.336242 
L 151.502177 326.271918 
L 152.324118 325.11929 
L 152.7293 325.709437 
L 153.782774 326.337131 
L 153.89854 325.233539 
L 156.34121 327.515972 
L 156.630626 329.749654 
L 157.61464 331.004567 
L 158.089282 331.342334 
L 159.733164 333.166028 
L 159.779471 333.579453 
L 160.311996 335.098913 
L 162.719936 334.971341 
L 163.206155 336.100618 
L 163.252461 335.195505 
L 163.84287 337.093676 
L 163.993366 335.900533 
L 164.282782 338.142616 
L 164.711117 339.904863 
L 165.093146 340.428754 
L 165.868781 338.761889 
L 166.343423 339.450445 
L 166.933831 337.240753 
L 171.309799 339.538698 
L 171.703405 340.721456 
L 171.853901 342.195576 
L 173.034718 344.096329 
L 173.219944 344.737479 
L 173.868235 346.493799 
L 174.53968 346.806939 
L 174.852249 348.833234 
L 174.898556 348.654047 
L 175.859417 349.661615 
L 176.484555 349.121358 
L 177.098116 349.133228 
L 177.12127 349.918347 
L 177.399109 348.864342 
L 177.410686 350.10762 
L 177.526452 350.525454 
L 179.6334 352.216813 
L 179.841779 352.000649 
L 180.027005 352.455533 
L 180.189078 353.794342 
L 181.705617 354.315336 
L 181.93715 353.213168 
L 182.539135 354.066576 
L 183.893601 351.967574 
L 184.727119 353.584529 
L 184.785002 352.288825 
L 185.456447 351.466989 
L 187.227672 351.276845 
L 187.760197 351.528304 
L 189.878721 349.541439 
L 190.202867 348.352078 
L 190.249174 347.38053 
L 191.117421 346.620272 
L 191.823596 348.567789 
L 192.286661 347.936308 
L 193.247522 348.734134 
L 193.282252 349.67385 
L 193.583245 351.712734 
L 194.023157 351.583996 
L 194.335726 354.757141 
L 194.729331 355.130641 
L 196.245871 354.564501 
L 197.820293 356.474022 
L 199.776744 356.42687 
L 202.751939 358.38862 
L 202.821399 359.650919 
L 203.562304 362.221057 
L 204.036946 360.7064 
L 204.442128 362.098959 
L 204.789427 362.316152 
L 205.391412 363.893073 
L 205.414565 363.003304 
L 206.05128 366.462028 
L 206.479616 364.513042 
L 206.560652 363.617634 
L 208.656023 364.071032 
L 209.385351 364.910204 
L 209.744227 363.939022 
L 210.90189 362.68908 
L 211.353379 364.168716 
L 211.770138 363.986105 
L 212.14059 365.027402 
L 214.212808 364.113739 
L 214.316998 365.745821 
L 215.7525 365.298657 
L 216.227142 365.984629 
L 216.701784 365.048748 
L 216.713361 365.644242 
L 217.674222 365.702898 
L 218.021521 365.851139 
L 218.600353 368.058642 
L 218.959228 366.025 
L 218.970805 364.771548 
L 219.480177 363.34015 
L 220.290541 363.965446 
L 220.60311 363.336446 
L 220.961986 365.094864 
L 221.158789 365.457513 
L 221.772351 365.632876 
L 221.969153 366.654212 
L 222.05019 367.719803 
L 223.520422 367.812337 
L 223.555152 366.519059 
L 224.712816 368.154859 
L 224.863312 364.589963 
L 225.361107 364.292392 
L 225.55791 364.840321 
L 226.055705 365.035992 
L 227.00499 365.588579 
L 227.028143 365.928333 
L 227.745894 365.313612 
L 227.942697 365.777769 
L 231.404111 365.790338 
L 231.554607 365.5751 
L 231.762987 365.826208 
L 232.226052 367.280257 
L 232.503891 368.714463 
L 232.573351 370.213958 
L 233.592095 370.892994 
L 233.661555 369.556217 
L 234.969714 369.87079 
L 235.872692 369.744925 
L 236.266297 371.553984 
L 240.619112 374.523073 
L 240.943258 373.879808 
L 241.174791 375.11998 
L 243.027052 375.591153 
L 243.594307 377.003021 
L 244.740394 376.652203 
L 244.786701 377.671458 
L 245.434992 379.909464 
L 246.210627 380.222959 
L 246.3727 381.532182 
L 246.812612 381.648359 
L 247.321984 381.532315 
L 247.345137 382.380476 
L 247.773473 383.248084 
L 248.224961 382.196139 
L 249.672041 376.354128 
L 250.910741 377.205854 
L 253.145031 377.019875 
L 253.191338 376.325037 
L 253.642826 376.782111 
L 253.966972 375.08327 
L 254.013279 375.701441 
L 257.810415 376.02417 
L 258.331364 376.457865 
L 258.782852 376.250232 
L 259.130151 375.094922 
L 259.558487 375.867038 
L 260.334121 376.812649 
L 260.658267 376.137015 
L 261.503362 375.620783 
L 261.781201 377.08155 
L 263.575579 378.760317 
L 264.119681 379.865328 
L 265.532031 379.484694 
L 265.63622 377.922934 
L 265.937213 379.042998 
L 266.400278 377.839191 
L 267.916817 378.528412 
L 268.04416 377.509689 
L 268.25254 378.118818 
L 268.854525 378.03312 
L 268.935561 378.639993 
L 269.965882 378.268692 
L 270.046918 379.668109 
L 270.55629 380.71581 
L 270.718363 380.643132 
L 272.061253 381.134802 
L 273.079996 380.791669 
L 273.334682 379.363186 
L 274.492346 380.86518 
L 275.349017 380.009011 
L 275.719469 380.401246 
L 275.869965 382.380649 
L 276.57614 383.981343 
L 277.664344 384.336957 
L 278.196869 382.371958 
L 278.254752 381.017406 
L 278.879891 379.389588 
L 279.215613 377.21365 
L 279.586065 377.201818 
L 279.748138 378.468171 
L 281.739319 378.916009 
L 282.294998 379.949905 
L 282.723333 379.131245 
L 283.116939 379.826397 
L 284.506135 379.14834 
L 284.830281 379.962968 
L 286.24263 381.16006 
L 286.624659 380.166442 
L 286.937228 380.752341 
L 289.391475 380.723304 
L 289.900847 381.9849 
L 290.375489 382.254893 
L 291.1627 383.134689 
L 291.174277 383.93849 
L 291.810992 384.914633 
L 292.644509 384.600555 
L 293.559064 386.671809 
L 293.964246 387.110522 
L 298.675936 386.830966 
L 299.046389 386.978174 
L 299.243191 387.705327 
L 299.521031 387.14421 
L 299.984096 386.812723 
L 301.986854 386.97992 
L 302.06789 388.641032 
L 303.642313 388.707632 
L 305.158852 389.59473 
L 305.587187 389.683056 
L 307.115303 389.591243 
L 307.914091 388.211248 
L 308.562382 388.158669 
L 308.666572 389.163931 
L 309.060178 389.253891 
L 310.796673 388.08921 
L 312.232176 387.88118 
L 313.575065 387.450672 
L 313.713985 387.921844 
L 313.760292 387.667114 
L 316.86283 389.508416 
L 317.592158 386.280949 
L 317.846844 388.690143 
L 318.217296 388.692534 
L 320.960958 390.285099 
L 321.030418 389.815797 
L 321.204068 389.984036 
L 321.377717 389.136948 
L 322.639571 388.179836 
L 323.646738 387.598193 
L 325.012781 389.996809 
L 325.059087 389.261613 
L 326.170444 389.916326 
L 326.969232 391.512297 
L 328.115319 392.491168 
L 328.613114 389.284481 
L 329.516092 389.241595 
L 329.550822 390.465206 
L 330.07177 390.777748 
L 330.893711 391.062365 
L 331.322047 390.731278 
L 333.486877 391.004611 
L 334.112016 390.294024 
L 334.297242 390.229948 
L 334.424585 391.773223 
L 335.165489 389.040313 
L 335.315986 387.907294 
L 338.927896 387.300582 
L 339.518304 388.287177 
L 339.888757 388.510625 
L 339.992946 390.380878 
L 340.212902 389.024521 
L 340.421282 390.887813 
L 341.034843 392.666493 
L 342.053587 393.953046 
L 342.481923 394.735404 
L 343.037601 397.80296 
L 344.125805 398.743912 
L 346.336942 395.356695 
L 346.533745 396.280492 
L 346.904197 395.901426 
L 347.320956 397.300646 
L 347.506182 397.501655 
L 348.397583 395.950604 
L 349.601553 395.324631 
L 349.995159 396.037696 
L 350.504531 394.174575 
L 351.419085 395.647224 
L 353.641799 395.663573 
L 353.827025 397.062766 
L 354.093288 397.823698 
L 354.730002 398.366473 
L 354.753156 397.497528 
L 356.304425 398.134384 
L 359.21016 396.783621 
L 359.487999 397.257076 
L 360.171021 395.850171 
L 360.356247 394.938093 
L 362.034859 395.511395 
L 362.879953 393.854689 
L 363.308289 394.156752 
L 366.60763 393.778854 
L 367.232768 392.714044 
L 367.522184 394.203177 
L 369.142913 393.630564 
L 370.879408 394.186331 
L 371.145671 394.490924 
L 371.28459 395.461811 
L 373.877757 396.120533 
L 374.757581 396.950647 
L 374.769157 398.505292 
L 375.845785 399.198621 
L 376.876105 398.619054 
L 376.899258 399.488941 
L 377.524397 399.148383 
L 377.559127 399.997518 
L 382.444466 399.194791 
L 386.01007 399.193027 
L 387.10985 399.850923 
L 387.329806 398.175673 
L 388.649543 398.179724 
L 389.784053 397.740269 
L 389.946126 398.933562 
L 390.409191 400.344203 
L 391.219556 399.646546 
L 391.393205 397.984047 
L 391.763658 398.724786 
L 391.844694 399.447612 
L 392.492986 400.26647 
L 392.747672 399.922807 
L 393.106547 400.857157 
L 393.824299 399.107565 
L 394.50732 398.830438 
L 396.093319 398.049712 
L 397.818238 397.417346 
L 398.350763 396.003728 
L 400.723973 396.1136 
L 401.464878 394.952152 
L 401.488031 395.335761 
L 402.634118 395.912729 
L 403.826511 394.027809 
L 403.965431 394.46718 
L 405.910305 395.051631 
L 406.014495 394.410904 
L 406.558597 395.220582 
L 407.832027 395.375359 
L 408.144596 396.060372 
L 408.295092 397.694704 
L 409.151763 397.324667 
L 409.661135 398.711633 
L 411.154521 400.148451 
L 412.265878 400.33867 
L 412.80998 401.545325 
L 413.504578 401.761345 
L 414.222329 401.614342 
L 414.233906 401.902324 
L 416.016708 401.290434 
L 416.52608 399.888056 
L 416.699729 399.06515 
L 417.567977 396.395546 
L 417.787933 396.992619 
L 417.984736 397.861359 
L 419.92961 398.42155 
L 420.612632 399.917624 
L 421.515609 400.084612 
L 421.619799 400.397442 
L 422.395434 400.059665 
L 422.58066 400.598018 
L 423.61098 402.072872 
L 423.900396 403.223082 
L 425.532702 403.324711 
L 425.914731 403.223424 
L 426.007344 404.485331 
L 426.713518 403.939015 
L 428.010101 403.629404 
L 428.46159 405.01529 
L 429.121458 406.398673 
L 433.173281 406.997264 
L 433.265894 407.758139 
L 433.902609 406.568101 
L 435.060272 406.806478 
L 437.13249 406.834533 
L 437.827088 406.647719 
L 438.151234 406.723119 
L 439.193131 406.331962 
L 439.33205 405.919024 
L 440.975933 406.442817 
L 442.515625 405.465422 
L 443.106033 405.547726 
L 444.194237 404.142052 
L 444.506806 405.629604 
L 445.189828 403.024829 
L 446.058075 402.352814 
L 446.69479 400.712558 
L 446.880016 399.262286 
L 447.285199 400.2925 
L 447.354658 400.043641 
L 448.593358 399.996556 
L 449.13746 403.099766 
L 449.334263 402.24217 
L 449.635255 401.47593 
L 450.792919 400.05814 
L 451.082335 399.397004 
L 451.730626 400.780721 
L 451.869546 400.603289 
L 452.020042 399.84573 
L 453.409238 399.241025 
L 454.05753 400.027818 
L 454.103837 398.881995 
L 454.566902 399.47523 
L 454.948931 399.190607 
L 455.134157 398.643717 
L 459.08179 397.917436 
L 459.232286 400.125125 
L 459.787964 400.31606 
L 461.42027 401.217409 
L 461.732839 400.28028 
L 462.288517 400.430904 
L 462.740006 401.875709 
L 465.495245 402.785572 
L 466.30561 402.405018 
L 467.023361 402.631319 
L 468.099988 402.554096 
L 469.697564 402.708056 
L 469.95225 402.89379 
L 470.727884 401.881295 
L 470.774191 402.124227 
L 470.866804 401.707874 
L 471.596132 403.239108 
L 473.112671 403.798982 
L 473.297897 404.211119 
L 473.45997 403.85944 
L 473.703079 404.079669 
L 474.177721 403.413089 
L 474.409254 402.062369 
L 476.655121 402.831247 
L 477.187647 405.05699 
L 480.116535 404.536582 
L 480.278608 403.560302 
L 480.834287 405.081212 
L 481.378388 405.454456 
L 482.883351 405.885397 
L 483.635832 406.652497 
L 483.647409 406.378379 
L 484.689306 407.197594 
L 485.430211 406.906133 
L 485.962736 407.009356 
L 489.053697 403.861471 
L 490.547083 403.802048 
L 490.929112 407.067117 
L 493.939037 407.240538 
L 494.03165 407.993198 
L 495.119854 406.636457 
L 495.768146 406.925731 
L 495.826029 406.442485 
L 495.849182 406.952879 
L 496.080715 407.956471 
L 497.64356 407.89991 
L 498.430772 408.792701 
L 498.639151 409.43471 
L 499.681048 408.607451 
L 500.595602 409.717243 
L 500.653485 407.461892 
L 501.614346 408.324805 
L 502.77201 408.327344 
L 502.899353 407.881511 
L 503.177192 406.435414 
L 504.612695 406.046413 
L 505.978738 404.576593 
L 507.55316 405.270689 
L 507.923612 404.912625 
L 508.178298 406.320001 
L 508.259335 407.391768 
L 508.409831 404.799402 
L 508.595057 405.374942 
L 509.509611 405.610112 
L 510.296822 405.567816 
L 510.597815 405.223037 
L 510.979844 405.592621 
L 511.489216 405.25708 
L 513.341477 405.043545 
L 514.348645 404.671844 
L 514.499141 405.968367 
L 515.066396 406.415958 
L 515.355812 407.382911 
L 515.679958 408.044461 
L 516.328249 407.4184 
L 517.127037 407.179109 
L 519.095065 405.819848 
L 519.546554 404.894569 
L 519.951736 405.055073 
L 520.646334 406.127583 
L 522.706975 407.249552 
L 523.586799 408.428272 
L 526.353615 407.933739 
L 527.453395 408.095207 
L 527.638621 407.678162 
L 527.858577 407.533997 
L 528.495292 406.529421 
L 528.587905 407.414969 
L 529.004664 407.628808 
L 530.555933 406.632673 
L 530.810619 406.831884 
L 531.007422 402.987196 
L 531.169495 403.077898 
L 531.401028 403.077462 
L 532.084049 403.623305 
L 533.473245 401.33408 
L 534.237303 402.683505 
L 534.491989 403.448183 
L 537.89552 401.916152 
L 538.208089 403.214737 
L 538.231242 403.90304 
L 538.775344 404.703142 
L 539.20368 406.025508 
L 539.620439 406.233316 
L 539.933008 405.892496 
L 540.801255 406.630132 
L 541.426394 407.351377 
L 541.484277 408.294348 
L 542.977663 408.723307 
L 543.487035 408.393602 
L 545.744478 409.134912 
L 548.175572 409.637108 
L 548.187148 410.177852 
L 548.349221 410.993394 
L 548.430258 409.942956 
L 549.344812 408.774308 
L 549.703688 409.223318 
L 550.224636 409.00475 
L 553.026182 409.447454 
L 553.894429 408.516766 
L 554.230152 410.505166 
L 555.573041 410.665176 
L 557.645259 411.438785 
L 558.027288 410.899494 
L 558.038865 410.481491 
L 560.504688 410.331031 
L 560.80568 409.305104 
L 561.662351 409.709622 
L 562.090687 409.502988 
L 562.241183 408.921217 
L 563.329387 408.371615 
L 563.52619 408.534826 
L 563.641956 407.458653 
L 564.672276 406.432834 
L 566.269852 405.844263 
L 566.89499 406.450957 
L 567.20756 405.707539 
L 567.439092 404.838886 
L 568.13369 405.559871 
L 568.874595 406.624811 
L 568.886172 406.497006 
L 569.106128 407.447839 
L 569.592346 408.278393 
L 569.742843 407.408066 
L 570.159601 407.629342 
L 570.634243 408.295162 
L 570.703703 409.498053 
L 571.120462 410.562985 
L 571.676141 410.741097 
L 572.903264 411.95145 
L 573.111643 411.081192 
L 573.725205 411.232812 
L 574.003044 411.810378 
L 576.040532 412.599856 
L 576.133145 413.190484 
L 576.688824 413.86809 
L 577.082429 414.660114 
L 577.522341 412.322868 
L 577.765451 411.888263 
L 578.587392 412.220405 
L 578.934691 413.502474 
L 579.24726 412.853339 
L 579.328296 410.096533 
L 579.965011 410.421655 
L 579.976588 410.007472 
L 581.48155 410.835593 
L 581.805696 409.88148 
L 582.766557 410.087404 
L 583.912644 409.819203 
L 584.503052 409.321681 
L 584.989271 407.969264 
L 585.070307 408.625772 
L 585.26711 406.470919 
L 585.498643 406.36226 
L 586.008015 407.375032 
L 586.170088 409.116725 
L 587.374058 409.176904 
L 588.994786 409.051551 
L 589.550465 409.907623 
L 589.643078 409.483801 
L 590.15245 409.597515 
L 590.615515 410.318217 
L 591.379573 410.719205 
L 591.530069 414.21721 
L 594.239002 414.769628 
L 594.991483 413.737743 
L 595.350359 411.902368 
L 596.20703 411.473568 
L 598.105598 409.786431 
L 598.360284 407.987373 
L 598.904386 409.043203 
L 599.807363 409.033982 
L 599.911553 409.268941 
L 600.073626 408.724677 
L 600.432502 408.849306 
L 601.02291 409.643366 
L 601.277596 408.411584 
L 603.187741 409.38488 
L 604.264368 409.129516 
L 604.299098 409.3842 
L 605.016849 408.709077 
L 605.94298 408.125824 
L 607.424789 408.120815 
L 608.003621 409.480218 
L 608.42038 409.194545 
L 608.663489 409.236319 
L 610.585211 408.122932 
L 612.148056 409.545728 
L 615.250594 409.192201 
L 616.118842 409.882122 
L 616.442988 409.770568 
L 617.207046 409.761565 
L 617.369119 409.006247 
L 617.94795 410.134117 
L 618.526782 410.732997 
L 618.630972 413.203627 
L 618.735162 412.47966 
L 618.769891 412.694986 
L 619.209804 413.152033 
L 620.39062 409.258423 
L 621.548284 408.814046 
L 621.617744 408.378179 
L 621.62932 408.45294 
L 621.976619 408.301455 
L 622.601758 408.507521 
L 624.465596 407.326634 
L 624.905508 405.682212 
L 625.264384 406.423509 
L 625.495916 406.619071 
L 627.602864 406.002087 
L 629.200439 407.512619 
L 629.686658 407.534791 
L 630.879052 406.953546 
L 631.353694 407.595641 
L 631.481037 408.128126 
L 631.758876 408.411317 
L 631.897795 409.079248 
L 633.506948 408.747898 
L 634.039473 408.999343 
L 635.891734 408.702793 
L 636.030654 409.92926 
L 636.331647 409.69562 
L 639.492068 410.492428 
L 641.425366 411.365848 
L 642.015774 413.472852 
L 642.154694 413.275468 
L 643.381817 414.086422 
L 644.6784 413.98449 
L 646.438049 414.180058 
L 646.623275 415.361915 
L 646.854808 410.512995 
L 648.035624 411.106106 
L 648.093508 411.904401 
L 648.267157 411.289275 
L 648.301887 410.199582 
L 648.42923 410.128268 
L 648.626033 409.880611 
L 648.672339 409.998406 
L 648.857566 408.313994 
L 649.031215 408.590694 
L 649.193288 409.887304 
L 649.656353 410.276111 
L 649.73739 409.703013 
L 649.957346 409.164531 
L 651.416002 409.827324 
L 651.925374 408.748884 
L 653.21038 408.113303 
L 654.217547 408.98064 
L 654.970029 408.393411 
L 655.132102 407.985547 
L 656.081386 407.592478 
L 656.89175 406.113626 
L 659.461763 405.908411 
L 660.874113 407.34126 
L 661.765513 409.279226 
L 662.332769 410.527508 
L 663.502009 411.220302 
L 663.860884 411.075842 
L 663.930344 411.907615 
L 664.381833 412.094728 
L 665.377424 411.747624 
L 666.824503 413.442069 
L 666.870809 413.874414 
L 667.507524 412.490174 
L 667.530678 411.210564 
L 667.773787 407.839617 
L 668.04005 406.453285 
L 669.232443 404.618926 
L 672.126602 404.828164 
L 672.485477 405.577954 
L 673.376878 405.12041 
L 674.152513 406.334122 
L 674.685038 406.200177 
L 675.22914 406.255661 
L 676.641489 406.564783 
L 677.150861 407.423602 
L 679.049429 406.476033 
L 679.176772 406.96315 
L 679.755604 407.758952 
L 680.924844 407.262004 
L 681.052187 406.854662 
L 682.175121 407.142801 
L 682.499267 407.926579 
L 682.742376 409.448486 
L 683.309631 409.152727 
L 684.606214 408.226949 
L 685.486038 408.454929 
L 685.648111 408.779794 
L 686.354286 408.3594 
L 687.511949 409.087809 
L 687.720329 410.434011 
L 688.47281 410.421643 
L 689.549437 411.181428 
L 689.60732 411.381918 
L 689.78097 410.279472 
L 690.024079 410.317428 
L 690.695524 410.664299 
L 690.892327 408.802981 
L 691.332239 408.325107 
L 691.459582 410.357308 
L 692.107874 412.227309 
L 693.890675 413.641262 
L 694.191668 413.575816 
L 694.550544 413.901144 
L 695.291448 413.368535 
L 699.62111 414.414904 
L 701.137649 413.15148 
L 701.149225 414.441537 
L 703.429822 413.795724 
L 704.934785 413.556781 
L 705.201048 412.364681 
L 705.444157 412.513694 
L 705.930376 413.054642 
L 708.430929 412.597888 
L 708.824534 413.350727 
L 709.21814 412.687011 
L 709.854855 412.057833 
L 710.24846 414.843645 
L 710.398957 414.625844 
L 712.019686 414.329476 
L 712.112299 414.588642 
L 713.200502 414.999753 
L 713.489918 413.997569 
L 715.006457 412.493786 
L 716.974485 413.464818 
L 717.970076 412.901256 
L 718.108996 411.024024 
L 718.305798 412.425325 
L 720.29698 411.615289 
L 720.760045 408.378817 
L 724.441415 409.079522 
L 724.568758 407.951991 
L 725.263356 407.307273 
L 726.733589 407.63049 
L 727.057734 407.238581 
L 728.72477 406.459879 
L 729.407791 406.788618 
L 730.634915 407.653822 
L 732.000957 408.369708 
L 734.235248 406.108969 
L 735.740211 406.637216 
L 735.937013 409.460601 
L 737.800852 409.363747 
L 740.336135 409.623488 
L 741.262265 409.420751 
L 741.424338 408.913514 
L 741.89898 408.613483 
L 741.96844 407.899431 
L 742.223126 407.578306 
L 742.327316 406.587065 
L 743.739665 408.066403 
L 744.758409 408.653755 
L 746.286525 408.746449 
L 747.224232 409.060697 
L 747.258962 409.237178 
L 747.293692 408.760114 
L 747.536801 410.003286 
L 747.583108 408.661943 
L 747.791487 408.271912 
L 748.138786 407.928213 
L 748.821808 408.651168 
L 749.771092 408.503122 
L 750.581456 406.244839 
L 752.213762 407.136161 
L 753.614535 408.941607 
L 754.031294 408.98329 
L 754.517512 409.856998 
L 755.258417 410.00444 
L 755.443643 411.26654 
L 755.45522 410.405362 
L 755.779366 411.83502 
L 757.608474 411.134323 
L 757.72424 414.371292 
L 758.754561 415.338229 
L 761.035158 414.081462 
L 761.26669 415.365979 
L 762.875843 414.625659 
L 763.188412 416.032204 
L 764.427112 416.274534 
L 767.147621 415.717728 
L 768.432627 415.57322 
L 768.884116 416.136357 
L 769.266145 415.498132 
L 770.435385 415.523844 
L 770.551152 415.771999 
L 770.944757 414.62368 
L 772.704406 413.313254 
L 772.831749 414.379621 
L 774.591397 413.345624 
L 774.846083 413.459522 
L 774.985003 412.936064 
L 777.207717 413.785957 
L 777.555016 414.323348 
L 779.488314 414.524285 
L 779.835613 413.013871 
L 779.928226 414.825585 
L 780.414445 414.870286 
L 781.317422 414.601287 
L 782.359319 414.731877 
L 782.822385 413.102753 
L 783.690632 414.060726 
L 784.107391 414.007356 
L 785.253478 413.226873 
L 785.519741 413.503997 
L 787.476192 413.692583 
L 788.483359 413.309713 
L 789.965168 413.001583 
L 790.75238 412.667863 
L 792.430992 410.734021 
L 793.218203 411.363619 
L 793.241356 410.680055 
L 794.838932 408.618609 
L 797.212142 408.629608 
L 798.068813 408.191806 
L 798.555032 410.711482 
L 800.465176 412.60352 
L 800.580943 412.381259 
L 801.206081 412.881078 
L 801.634416 413.551957 
L 801.993292 412.8649 
L 803.382488 413.323989 
L 804.736955 412.121153 
L 804.736955 412.121153 
" clip-path="url(#p22042fb1a6)" style="fill: none; stroke: #f77189; stroke-width: 2.5; stroke-linecap: round"/>
   </g>
   <g id="line2d_13">
    <path d="M 105.786045 57.650045 
L 106.619563 86.986615 
L 106.793213 82.320717 
L 108.448671 90.398878 
L 109.177999 112.425209 
L 109.698948 111.571781 
L 110.023094 122.747449 
L 110.231473 135.004098 
L 110.694539 148.657843 
L 111.41229 139.217579 
L 112.639413 146.513959 
L 113.102479 159.31863 
L 113.82023 165.267447 
L 115.545149 167.517447 
L 115.672492 171.492991 
L 115.799835 179.128571 
L 116.818579 177.973337 
L 116.899615 181.324263 
L 117.270067 190.376128 
L 117.5016 199.741543 
L 118.288811 201.72819 
L 118.508767 203.324372 
L 120.198956 208.080863 
L 120.673598 210.25492 
L 121.715495 227.793329 
L 121.912298 228.958066 
L 123.127845 231.020938 
L 126.253536 237.211341 
L 126.485069 242.57286 
L 131.995547 246.194679 
L 132.05343 250.428321 
L 132.296539 254.370465 
L 132.771181 256.774005 
L 133.627852 258.244048 
L 134.39191 261.0683 
L 134.866552 261.667947 
L 135.248581 269.954013 
L 135.83899 270.8684 
L 136.035792 270.564514 
L 138.2122 274.371421 
L 139.48563 275.88261 
L 139.728739 277.94626 
L 139.740316 280.826681 
L 140.203381 283.934119 
L 141.036899 285.939725 
L 141.314738 287.857632 
L 141.592577 287.457929 
L 142.646051 287.889414 
L 143.201729 290.794168 
L 144.313086 293.635773 
L 144.614079 293.978257 
L 145.077144 294.110436 
L 145.47075 295.958379 
L 145.655976 298.617805 
L 146.095888 301.147976 
L 146.292691 303.954803 
L 146.767333 303.076299 
L 147.577697 302.896153 
L 148.341755 303.915347 
L 149.11739 306.703155 
L 151.363257 309.410095 
L 151.502177 308.913319 
L 152.196775 309.001522 
L 152.324118 311.481156 
L 152.7293 313.566042 
L 153.782774 314.612613 
L 153.89854 316.915565 
L 156.34121 317.992635 
L 156.630626 316.805638 
L 159.733164 318.626491 
L 159.779471 317.833151 
L 160.311996 320.038747 
L 162.719936 320.795354 
L 163.206155 321.554139 
L 163.252461 320.847418 
L 163.84287 322.718413 
L 164.282782 321.310251 
L 164.711117 323.729451 
L 165.093146 324.746063 
L 165.868781 325.041635 
L 166.343423 327.27548 
L 166.933831 328.72211 
L 169.399654 328.495554 
L 171.309799 330.294324 
L 171.703405 330.293711 
L 171.853901 331.555858 
L 172.745302 332.082697 
L 173.034718 333.531956 
L 173.219944 333.389533 
L 173.868235 332.660535 
L 174.53968 332.790165 
L 174.852249 333.687496 
L 174.898556 334.816588 
L 175.859417 334.325126 
L 177.098116 337.143801 
L 177.12127 339.109286 
L 177.399109 339.113464 
L 177.526452 342.899295 
L 179.6334 342.624331 
L 180.027005 344.502402 
L 180.189078 343.247664 
L 181.705617 342.885837 
L 181.93715 341.803807 
L 182.539135 343.195287 
L 183.094813 341.784142 
L 183.893601 342.307034 
L 184.727119 342.173463 
L 184.785002 344.024906 
L 185.456447 343.858891 
L 187.227672 344.10484 
L 187.760197 345.529385 
L 189.878721 346.725638 
L 190.202867 348.990126 
L 190.249174 350.59061 
L 191.117421 350.243786 
L 191.823596 350.33216 
L 192.286661 350.250186 
L 193.247522 350.957665 
L 193.282252 350.680367 
L 193.583245 351.417427 
L 194.023157 351.071984 
L 194.335726 351.950015 
L 194.729331 352.228005 
L 196.245871 352.679712 
L 197.820293 352.992811 
L 199.776744 354.398762 
L 202.751939 356.288333 
L 202.821399 357.585145 
L 203.562304 358.311666 
L 204.036946 358.422096 
L 204.442128 360.251273 
L 204.789427 360.366964 
L 205.414565 361.866287 
L 205.935514 363.594307 
L 206.05128 361.901171 
L 206.479616 363.240006 
L 206.560652 364.351457 
L 208.656023 364.572291 
L 209.385351 365.185593 
L 209.744227 363.90342 
L 210.90189 364.922408 
L 211.770138 367.143524 
L 212.14059 366.168127 
L 214.212808 365.769036 
L 214.316998 366.767206 
L 215.7525 369.614869 
L 216.227142 371.762659 
L 216.701784 370.864524 
L 216.713361 371.595347 
L 217.674222 370.699553 
L 218.021521 370.1442 
L 218.33409 371.535234 
L 218.959228 369.84728 
L 218.970805 370.190322 
L 219.318104 368.535464 
L 219.480177 369.948287 
L 220.290541 370.643882 
L 220.60311 370.174099 
L 221.158789 373.140522 
L 221.772351 373.629096 
L 221.969153 372.195201 
L 222.05019 372.956399 
L 223.555152 372.931029 
L 224.133984 372.167716 
L 224.712816 372.022578 
L 224.863312 370.701264 
L 225.361107 370.007883 
L 225.55791 370.559517 
L 226.055705 370.10386 
L 227.00499 370.917341 
L 227.028143 370.874975 
L 227.745894 372.016189 
L 227.942697 370.893213 
L 231.404111 372.429701 
L 231.554607 371.900588 
L 231.762987 372.808434 
L 232.226052 371.039179 
L 232.503891 372.035328 
L 232.573351 373.886384 
L 233.592095 372.915233 
L 233.661555 371.646836 
L 234.969714 370.548791 
L 235.699042 370.159224 
L 235.872692 370.89941 
L 236.266297 370.401055 
L 240.237083 371.053241 
L 240.619112 370.242488 
L 241.174791 372.881057 
L 243.027052 373.899345 
L 243.594307 375.60937 
L 244.740394 378.036645 
L 244.786701 379.661188 
L 245.434992 380.194764 
L 246.812612 384.229703 
L 247.345137 383.093577 
L 247.773473 383.496749 
L 248.224961 382.06721 
L 249.127939 383.177804 
L 249.672041 383.607578 
L 250.910741 382.477396 
L 253.145031 383.096108 
L 253.191338 384.192153 
L 253.642826 384.582737 
L 253.966972 385.678322 
L 254.013279 386.404258 
L 257.810415 387.170675 
L 258.331364 386.777171 
L 258.782852 387.718145 
L 259.130151 387.275759 
L 259.558487 387.74039 
L 260.334121 388.808039 
L 260.658267 388.74237 
L 261.503362 390.183107 
L 261.723318 390.338042 
L 261.781201 390.803253 
L 263.575579 389.361592 
L 264.119681 390.564391 
L 265.532031 389.945849 
L 265.937213 388.938336 
L 266.400278 390.017242 
L 267.916817 392.31795 
L 268.04416 392.74598 
L 268.25254 392.140769 
L 268.854525 391.511878 
L 268.935561 389.937014 
L 269.965882 390.045381 
L 270.046918 389.564741 
L 270.55629 391.204857 
L 270.718363 390.884783 
L 272.061253 390.390861 
L 273.334682 389.386622 
L 275.349017 390.045998 
L 275.869965 388.979017 
L 276.57614 389.429867 
L 277.664344 388.866189 
L 278.196869 390.236356 
L 278.254752 391.164415 
L 278.717818 391.336037 
L 278.879891 391.768586 
L 279.041963 390.911976 
L 279.215613 391.756331 
L 279.748138 392.325105 
L 281.739319 389.904934 
L 282.294998 388.666849 
L 282.723333 388.503534 
L 283.116939 387.950438 
L 284.506135 387.381662 
L 284.830281 386.602342 
L 286.24263 387.166087 
L 286.624659 386.595792 
L 286.937228 387.856239 
L 289.391475 387.716965 
L 290.375489 390.181267 
L 291.1627 389.595444 
L 291.174277 391.75084 
L 291.810992 389.906638 
L 292.644509 390.017475 
L 293.559064 389.498934 
L 293.964246 390.658104 
L 297.483543 391.968549 
L 298.675936 390.607771 
L 299.046389 391.687926 
L 299.208461 391.256033 
L 299.243191 390.093298 
L 299.984096 392.87783 
L 301.986854 393.514906 
L 302.056314 394.681899 
L 302.06789 394.426549 
L 303.642313 395.109315 
L 305.158852 395.567597 
L 305.587187 396.257839 
L 307.115303 396.822102 
L 307.914091 396.820673 
L 308.562382 397.069595 
L 308.666572 396.499128 
L 309.060178 396.298359 
L 310.796673 395.807542 
L 312.232176 396.415161 
L 313.575065 395.052208 
L 313.667678 396.021947 
L 313.760292 393.798066 
L 316.86283 395.309469 
L 317.592158 395.457178 
L 317.742654 395.880806 
L 317.846844 395.734097 
L 318.217296 397.065735 
L 320.960958 396.402067 
L 321.204068 398.042717 
L 321.377717 398.485074 
L 323.646738 399.143766 
L 325.012781 399.098713 
L 325.059087 399.80362 
L 326.170444 400.849827 
L 326.969232 401.106947 
L 327.443874 401.520265 
L 328.115319 401.026787 
L 328.451041 401.400929 
L 328.613114 402.120071 
L 329.516092 401.397971 
L 329.550822 402.560906 
L 330.07177 403.415415 
L 330.893711 403.627907 
L 331.322047 403.916799 
L 333.486877 402.638409 
L 333.71841 401.879037 
L 334.297242 403.422548 
L 334.424585 403.374641 
L 335.165489 403.359948 
L 335.315986 404.044204 
L 338.927896 402.811035 
L 339.518304 402.796619 
L 339.992946 402.149549 
L 340.421282 399.735859 
L 341.034843 398.937643 
L 342.018857 398.658015 
L 342.053587 400.968178 
L 342.481923 400.586225 
L 343.037601 403.590068 
L 344.125805 404.016672 
L 345.063512 403.936839 
L 346.336942 403.309083 
L 346.533745 404.002013 
L 346.661088 405.449336 
L 346.904197 406.508484 
L 347.320956 406.398308 
L 347.506182 404.993729 
L 348.397583 404.943891 
L 349.601553 405.505686 
L 349.995159 406.109961 
L 350.504531 406.687609 
L 351.419085 407.42001 
L 353.641799 407.374461 
L 353.769142 407.507874 
L 353.827025 404.383317 
L 354.093288 405.917384 
L 354.730002 404.944871 
L 354.753156 406.235018 
L 356.304425 405.804707 
L 359.21016 406.016736 
L 359.487999 405.115242 
L 360.171021 404.258108 
L 360.356247 405.51174 
L 362.034859 405.883885 
L 362.8568 406.293588 
L 362.879953 405.217967 
L 363.308289 406.433691 
L 366.60763 407.458345 
L 367.522184 406.695426 
L 369.142913 407.153616 
L 370.879408 405.991466 
L 371.145671 406.485366 
L 371.28459 405.700095 
L 373.877757 405.979946 
L 374.757581 406.544837 
L 374.769157 407.03918 
L 375.845785 406.948035 
L 376.876105 407.490462 
L 376.899258 407.172231 
L 377.524397 405.987226 
L 377.559127 406.385755 
L 382.444466 406.109392 
L 386.01007 405.500068 
L 387.063544 404.993145 
L 387.10985 404.767328 
L 387.329806 406.003467 
L 388.649543 404.543202 
L 389.784053 403.990117 
L 389.946126 405.181795 
L 390.409191 404.629659 
L 391.393205 405.029073 
L 391.763658 405.522417 
L 391.844694 406.365581 
L 392.492986 407.471146 
L 392.747672 407.295317 
L 393.106547 407.404128 
L 393.824299 407.05549 
L 394.50732 408.63744 
L 397.818238 410.693382 
L 398.350763 410.670009 
L 400.723973 410.140238 
L 401.349111 410.333247 
L 401.488031 409.090162 
L 401.97425 410.308175 
L 402.634118 408.767605 
L 403.826511 407.605133 
L 403.965431 407.871552 
L 405.910305 408.615581 
L 406.014495 408.921525 
L 406.558597 409.717032 
L 407.832027 410.883826 
L 408.144596 411.332199 
L 408.295092 409.531124 
L 409.151763 409.902257 
L 409.661135 410.500928 
L 411.154521 412.840306 
L 412.265878 412.280947 
L 412.80998 412.614366 
L 413.504578 413.211462 
L 414.222329 412.356123 
L 414.233906 412.751676 
L 416.016708 413.04627 
L 416.52608 413.57106 
L 416.699729 411.678809 
L 417.567977 411.960872 
L 417.787933 413.320716 
L 417.984736 411.301803 
L 419.92961 411.085553 
L 420.612632 410.744906 
L 421.480879 411.341137 
L 421.515609 410.461273 
L 421.619799 410.471886 
L 422.395434 411.110307 
L 422.58066 409.771035 
L 423.61098 409.675743 
L 423.900396 410.525769 
L 425.532702 410.40467 
L 425.914731 411.495209 
L 426.007344 413.613082 
L 426.713518 412.035441 
L 428.010101 411.041896 
L 428.46159 411.447852 
L 429.121458 411.746503 
L 432.14296 412.13386 
L 433.173281 411.287068 
L 433.265894 411.465343 
L 433.902609 411.678222 
L 435.060272 410.179834 
L 437.13249 410.057736 
L 437.827088 408.835467 
L 438.151234 409.155847 
L 439.193131 409.338681 
L 439.33205 408.867066 
L 440.975933 409.263261 
L 442.515625 405.058183 
L 443.106033 404.826383 
L 444.194237 403.829702 
L 444.506806 404.981117 
L 445.189828 404.173025 
L 446.058075 404.277631 
L 446.69479 405.375379 
L 446.880016 406.101301 
L 447.285199 405.58967 
L 447.354658 406.983227 
L 448.593358 405.176663 
L 448.871198 407.548911 
L 449.334263 404.711361 
L 449.635255 405.714991 
L 450.792919 406.182152 
L 451.082335 405.405337 
L 451.730626 406.242234 
L 451.869546 406.21285 
L 452.020042 406.378223 
L 453.409238 407.105524 
L 454.05753 405.78176 
L 454.103837 407.030678 
L 454.566902 407.285844 
L 454.948931 406.220801 
L 455.134157 406.680264 
L 459.08179 407.087092 
L 459.232286 406.384428 
L 459.787964 405.407496 
L 461.42027 404.692017 
L 461.732839 404.818804 
L 462.195904 404.807949 
L 462.288517 405.026909 
L 462.740006 404.691298 
L 465.495245 404.649672 
L 466.30561 405.75205 
L 467.023361 405.328848 
L 467.416967 406.763471 
L 468.099988 405.774846 
L 469.697564 406.872278 
L 469.95225 407.932496 
L 470.311125 407.951834 
L 470.774191 409.946443 
L 470.866804 409.357373 
L 471.596132 410.421884 
L 473.112671 410.918563 
L 473.45997 412.870504 
L 473.703079 413.390198 
L 473.969342 411.413414 
L 474.177721 411.73118 
L 474.409254 411.092728 
L 476.249939 410.783257 
L 477.187647 407.942775 
L 480.116535 409.218486 
L 480.278608 406.775407 
L 480.834287 406.872836 
L 481.378388 406.451479 
L 482.883351 407.529506 
L 483.635832 407.845773 
L 483.647409 408.631891 
L 483.797905 406.785897 
L 484.689306 407.619829 
L 485.430211 407.489674 
L 485.962736 406.448405 
L 487.965494 408.299846 
L 489.053697 407.890226 
L 490.547083 408.152937 
L 490.755463 408.548527 
L 490.929112 409.721862 
L 493.939037 410.982602 
L 494.03165 411.142784 
L 495.119854 410.074191 
L 495.768146 410.566809 
L 495.849182 408.27388 
L 496.080715 408.107489 
L 498.430772 409.028787 
L 498.639151 409.521402 
L 499.681048 409.85854 
L 500.595602 410.749436 
L 500.653485 409.68405 
L 501.614346 409.560058 
L 502.77201 409.250573 
L 503.177192 406.796202 
L 504.612695 407.675757 
L 505.978738 409.506527 
L 507.55316 410.363699 
L 507.923612 411.171162 
L 508.259335 410.454268 
L 508.363524 409.549212 
L 508.386678 409.730193 
L 508.409831 408.152211 
L 508.595057 409.003725 
L 509.509611 409.299246 
L 510.296822 411.194632 
L 510.597815 410.848707 
L 510.979844 411.548214 
L 511.489216 410.566442 
L 513.341477 410.012445 
L 514.348645 410.84647 
L 514.499141 411.566926 
L 515.066396 412.849305 
L 515.355812 411.941838 
L 515.679958 410.285999 
L 516.328249 411.857444 
L 517.127037 411.584262 
L 517.821635 412.04949 
L 518.805649 413.408958 
L 519.095065 412.767066 
L 519.546554 412.838292 
L 519.951736 412.319687 
L 520.646334 412.22323 
L 522.197603 413.512414 
L 522.706975 413.23563 
L 523.586799 414.326095 
L 526.353615 413.553067 
L 527.453395 412.838424 
L 527.858577 413.177173 
L 528.495292 414.045679 
L 528.587905 413.074548 
L 529.004664 413.601463 
L 530.555933 413.712932 
L 530.810619 412.719436 
L 530.833773 413.947798 
L 530.868503 413.90651 
L 531.007422 415.267865 
L 531.169495 415.184182 
L 531.401028 415.626074 
L 532.084049 415.538127 
L 533.04491 411.535831 
L 533.473245 412.339579 
L 534.491989 411.628385 
L 536.378981 412.086018 
L 537.89552 412.65279 
L 538.231242 415.64122 
L 538.775344 415.146608 
L 539.620439 412.4607 
L 539.933008 410.510572 
L 540.801255 410.248942 
L 541.426394 411.610553 
L 541.484277 411.208596 
L 542.977663 411.295401 
L 543.487035 411.990218 
L 545.744478 411.645787 
L 548.175572 411.824086 
L 548.187148 412.819262 
L 548.349221 412.205756 
L 548.430258 412.904373 
L 549.344812 412.332747 
L 549.703688 411.074698 
L 550.224636 411.643138 
L 553.419787 409.862762 
L 553.894429 410.195535 
L 554.102809 410.536064 
L 554.230152 410.393011 
L 555.573041 411.290089 
L 558.027288 410.979187 
L 558.038865 411.342328 
L 561.662351 411.051266 
L 562.241183 409.685952 
L 563.329387 410.827429 
L 563.52619 410.231515 
L 563.641956 410.588313 
L 564.672276 410.683202 
L 566.269852 411.07072 
L 566.89499 411.362323 
L 567.20756 410.05434 
L 567.439092 410.374949 
L 568.13369 409.719715 
L 568.874595 410.565465 
L 568.886172 412.198843 
L 569.106128 413.252302 
L 569.592346 413.918817 
L 570.159601 416.084569 
L 570.634243 414.875134 
L 570.703703 415.131581 
L 571.120462 414.986167 
L 571.676141 415.549955 
L 572.903264 414.909771 
L 573.111643 415.811632 
L 573.725205 416.471556 
L 574.003044 417.528573 
L 576.040532 416.95214 
L 576.133145 415.021966 
L 576.688824 415.718665 
L 577.082429 413.999579 
L 577.522341 414.837262 
L 577.765451 415.565406 
L 578.587392 416.053523 
L 578.934691 414.969177 
L 579.28199 416.220999 
L 579.328296 417.888727 
L 579.965011 417.923821 
L 579.976588 418.817321 
L 581.48155 418.139129 
L 581.805696 418.399302 
L 582.766557 417.43235 
L 583.912644 417.126751 
L 584.503052 416.604246 
L 584.641972 416.667558 
L 584.699855 415.702566 
L 585.070307 414.004703 
L 585.243957 413.927605 
L 585.26711 414.580645 
L 585.498643 415.525953 
L 586.008015 415.708769 
L 586.170088 416.190057 
L 587.374058 417.331866 
L 588.994786 414.971763 
L 589.550465 415.61558 
L 589.643078 416.785386 
L 590.15245 416.919165 
L 590.603939 417.513281 
L 590.615515 416.43299 
L 591.379573 417.163745 
L 591.49534 416.17732 
L 591.530069 417.908065 
L 594.239002 417.526826 
L 594.991483 417.746014 
L 595.350359 415.845171 
L 596.20703 415.915694 
L 598.105598 414.847054 
L 598.360284 414.537195 
L 598.904386 415.656889 
L 599.807363 415.07665 
L 600.073626 415.888509 
L 600.432502 416.810108 
L 601.02291 417.073192 
L 601.277596 416.064183 
L 603.187741 414.444739 
L 604.264368 414.553394 
L 604.299098 412.624485 
L 605.016849 414.268175 
L 605.94298 414.623852 
L 608.003621 413.71172 
L 608.42038 414.694248 
L 608.663489 414.957808 
L 610.585211 415.847275 
L 611.777604 416.147801 
L 612.148056 417.792412 
L 615.250594 419.349916 
L 616.118842 420.402851 
L 616.442988 419.824538 
L 617.207046 419.56005 
L 617.369119 418.377501 
L 617.94795 418.925585 
L 618.526782 419.286836 
L 618.630972 421.0116 
L 618.735162 419.360379 
L 618.769891 419.414442 
L 619.209804 419.801513 
L 620.39062 420.549889 
L 621.397788 420.934843 
L 621.548284 419.66343 
L 621.62932 417.366208 
L 621.976619 417.938236 
L 622.601758 416.191592 
L 624.465596 414.926556 
L 624.905508 415.255342 
L 625.264384 416.074223 
L 625.495916 415.476705 
L 629.200439 415.429366 
L 630.879052 416.891048 
L 631.481037 417.023292 
L 631.897795 415.211618 
L 633.506948 413.293321 
L 634.039473 414.089682 
L 635.891734 413.94395 
L 636.030654 413.560379 
L 636.331647 414.848761 
L 639.492068 415.128343 
L 641.425366 415.778712 
L 642.154694 414.616075 
L 643.381817 415.366985 
L 644.6784 414.408364 
L 646.438049 414.258182 
L 646.623275 412.855169 
L 646.843231 412.107201 
L 646.854808 412.150878 
L 648.035624 412.450464 
L 648.093508 412.748289 
L 648.267157 412.633728 
L 648.301887 414.147018 
L 648.42923 414.352593 
L 648.626033 412.962527 
L 648.672339 413.258801 
L 648.857566 413.671759 
L 649.031215 413.230782 
L 649.193288 414.187397 
L 649.656353 414.389555 
L 649.73739 414.022973 
L 649.957346 413.824679 
L 651.416002 413.029238 
L 651.647535 414.395508 
L 651.925374 415.195273 
L 653.21038 415.231388 
L 654.217547 414.843174 
L 654.970029 413.949366 
L 655.132102 413.066035 
L 656.081386 413.437233 
L 656.89175 413.97842 
L 659.461763 414.980965 
L 660.874113 416.658174 
L 661.661324 415.817618 
L 661.765513 415.159256 
L 662.332769 416.24927 
L 663.502009 416.200222 
L 663.860884 414.687906 
L 663.930344 415.512366 
L 664.381833 417.270068 
L 665.377424 416.233486 
L 666.824503 417.87486 
L 666.870809 416.258506 
L 667.507524 415.314723 
L 667.530678 415.541548 
L 667.773787 415.880682 
L 668.04005 414.886547 
L 669.232443 415.140972 
L 672.126602 414.428229 
L 672.265521 415.261488 
L 672.485477 413.748074 
L 672.960119 413.064031 
L 673.376878 413.799506 
L 674.152513 412.547878 
L 674.685038 412.266014 
L 675.22914 413.283718 
L 676.641489 413.025345 
L 677.150861 413.650095 
L 679.049429 414.554985 
L 679.176772 416.814262 
L 679.755604 415.849107 
L 680.924844 414.723779 
L 681.052187 413.990708 
L 682.175121 412.383841 
L 682.499267 414.490178 
L 682.742376 413.719506 
L 683.309631 414.225638 
L 684.606214 415.210013 
L 685.486038 414.932419 
L 685.648111 414.554028 
L 686.354286 414.74347 
L 687.511949 416.099361 
L 687.720329 417.208273 
L 688.47281 418.905313 
L 689.549437 418.332035 
L 689.60732 417.421563 
L 689.78097 416.556558 
L 690.024079 416.592578 
L 690.695524 415.813913 
L 690.892327 414.041374 
L 691.332239 413.992601 
L 691.436429 413.552562 
L 691.459582 413.851554 
L 692.107874 414.021295 
L 693.034004 415.173301 
L 693.890675 414.11106 
L 694.550544 414.897568 
L 695.291448 415.060408 
L 701.137649 412.39915 
L 701.149225 412.114635 
L 703.429822 412.652481 
L 704.934785 413.962686 
L 704.969515 413.691742 
L 705.201048 410.758722 
L 705.444157 412.866535 
L 705.930376 411.970971 
L 708.430929 413.561423 
L 708.824534 414.724071 
L 709.21814 414.941603 
L 709.854855 412.641916 
L 710.24846 409.487839 
L 710.398957 411.302587 
L 712.019686 411.567854 
L 712.112299 412.790887 
L 713.200502 413.095138 
L 713.489918 413.499589 
L 715.006457 414.454225 
L 716.974485 414.703237 
L 717.970076 412.683999 
L 718.236339 411.766564 
L 718.305798 412.207417 
L 720.29698 411.674129 
L 720.760045 412.373178 
L 724.441415 412.185988 
L 724.568758 413.512179 
L 725.263356 413.554613 
L 726.733589 413.809971 
L 727.057734 414.399986 
L 728.72477 415.168735 
L 729.407791 414.374852 
L 730.634915 413.816866 
L 732.000957 413.047518 
L 734.235248 413.843114 
L 735.740211 413.469075 
L 735.786517 413.781411 
L 735.937013 413.817112 
L 737.800852 415.933296 
L 740.336135 416.360087 
L 741.262265 416.307094 
L 741.424338 415.778118 
L 741.89898 416.604234 
L 742.223126 414.877195 
L 742.327316 412.437244 
L 743.739665 411.132986 
L 744.758409 411.841921 
L 746.286525 410.643561 
L 747.224232 412.152924 
L 747.293692 413.8238 
L 747.791487 414.856833 
L 748.138786 414.067281 
L 748.821808 416.408593 
L 749.771092 416.678848 
L 750.581456 416.597757 
L 751.87804 415.403627 
L 752.213762 415.844701 
L 752.688404 416.860799 
L 753.614535 416.280819 
L 754.031294 417.422945 
L 754.517512 416.799234 
L 755.443643 416.791067 
L 755.45522 415.475131 
L 755.779366 414.756385 
L 757.608474 414.93825 
L 757.72424 415.324197 
L 758.754561 414.403567 
L 760.896238 415.672491 
L 761.035158 415.274482 
L 761.243537 415.879119 
L 761.26669 415.404604 
L 762.875843 415.811053 
L 763.188412 415.743145 
L 764.427112 414.824638 
L 767.147621 415.835044 
L 768.432627 416.006835 
L 768.884116 415.571166 
L 769.266145 415.571624 
L 770.435385 416.329824 
L 770.551152 417.210981 
L 770.944757 416.272001 
L 772.704406 417.379817 
L 772.831749 416.543515 
L 774.058872 416.83268 
L 774.591397 417.853485 
L 774.846083 418.962673 
L 774.985003 421.384818 
L 777.207717 420.990987 
L 777.555016 422.031006 
L 779.488314 421.724736 
L 779.835613 422.429849 
L 779.928226 421.256599 
L 780.414445 421.201699 
L 781.317422 420.20617 
L 782.359319 419.69348 
L 782.822385 419.946005 
L 783.690632 421.049554 
L 784.107391 420.222706 
L 785.253478 422.173205 
L 785.519741 421.20493 
L 787.476192 423.248055 
L 788.483359 423.031062 
L 789.965168 423.415038 
L 790.75238 423.500955 
L 792.430992 422.991118 
L 793.218203 420.995657 
L 793.241356 421.336398 
L 794.838932 420.1677 
L 797.212142 420.867349 
L 798.068813 420.75085 
L 798.404535 421.397133 
L 798.555032 419.680627 
L 799.840038 417.985316 
L 800.465176 417.360702 
L 800.580943 416.492239 
L 801.206081 414.834309 
L 801.634416 415.018797 
L 801.993292 415.889883 
L 803.382488 415.930023 
L 804.736955 415.601495 
L 804.736955 415.601495 
" clip-path="url(#p22042fb1a6)" style="fill: none; stroke: #36ada4; stroke-width: 2.5; stroke-linecap: round"/>
   </g>
   <g id="patch_3">
    <path d="M 70.8385 441.7935 
L 70.8385 39.3575 
" style="fill: none; stroke: #cccccc; stroke-linejoin: miter; stroke-linecap: square"/>
   </g>
   <g id="patch_4">
    <path d="M 839.6845 441.7935 
L 839.6845 39.3575 
" style="fill: none; stroke: #cccccc; stroke-linejoin: miter; stroke-linecap: square"/>
   </g>
   <g id="patch_5">
    <path d="M 70.8385 441.7935 
L 839.6845 441.7935 
" style="fill: none; stroke: #cccccc; stroke-linejoin: miter; stroke-linecap: square"/>
   </g>
   <g id="patch_6">
    <path d="M 70.8385 39.3575 
L 839.6845 39.3575 
" style="fill: none; stroke: #cccccc; stroke-linejoin: miter; stroke-linecap: square"/>
   </g>
   <g id="text_15">
    <!-- Błąd na zbiorze uczącym -->
    <g style="fill: #262626" transform="translate(344.1865 19.3575) scale(0.16 -0.16)">
     <defs>
      <path id="DejaVuSans-Bold-20" transform="scale(0.015625)"/>
      <path id="DejaVuSans-Bold-6e" d="M 4056 2131 
L 4056 0 
L 2931 0 
L 2931 347 
L 2931 1631 
Q 2931 2084 2911 2256 
Q 2891 2428 2841 2509 
Q 2775 2619 2662 2680 
Q 2550 2741 2406 2741 
Q 2056 2741 1856 2470 
Q 1656 2200 1656 1722 
L 1656 0 
L 538 0 
L 538 3500 
L 1656 3500 
L 1656 2988 
Q 1909 3294 2193 3439 
Q 2478 3584 2822 3584 
Q 3428 3584 3742 3212 
Q 4056 2841 4056 2131 
z
" transform="scale(0.015625)"/>
      <path id="DejaVuSans-Bold-61" d="M 2106 1575 
Q 1756 1575 1579 1456 
Q 1403 1338 1403 1106 
Q 1403 894 1545 773 
Q 1688 653 1941 653 
Q 2256 653 2472 879 
Q 2688 1106 2688 1447 
L 2688 1575 
L 2106 1575 
z
M 3816 1997 
L 3816 0 
L 2688 0 
L 2688 519 
Q 2463 200 2181 54 
Q 1900 -91 1497 -91 
Q 953 -91 614 226 
Q 275 544 275 1050 
Q 275 1666 698 1953 
Q 1122 2241 2028 2241 
L 2688 2241 
L 2688 2328 
Q 2688 2594 2478 2717 
Q 2269 2841 1825 2841 
Q 1466 2841 1156 2769 
Q 847 2697 581 2553 
L 581 3406 
Q 941 3494 1303 3539 
Q 1666 3584 2028 3584 
Q 2975 3584 3395 3211 
Q 3816 2838 3816 1997 
z
" transform="scale(0.015625)"/>
      <path id="DejaVuSans-Bold-7a" d="M 366 3500 
L 3419 3500 
L 3419 2719 
L 1575 800 
L 3419 800 
L 3419 0 
L 288 0 
L 288 781 
L 2131 2700 
L 366 2700 
L 366 3500 
z
" transform="scale(0.015625)"/>
      <path id="DejaVuSans-Bold-62" d="M 2400 722 
Q 2759 722 2948 984 
Q 3138 1247 3138 1747 
Q 3138 2247 2948 2509 
Q 2759 2772 2400 2772 
Q 2041 2772 1848 2508 
Q 1656 2244 1656 1747 
Q 1656 1250 1848 986 
Q 2041 722 2400 722 
z
M 1656 2988 
Q 1888 3294 2169 3439 
Q 2450 3584 2816 3584 
Q 3463 3584 3878 3070 
Q 4294 2556 4294 1747 
Q 4294 938 3878 423 
Q 3463 -91 2816 -91 
Q 2450 -91 2169 54 
Q 1888 200 1656 506 
L 1656 0 
L 538 0 
L 538 4863 
L 1656 4863 
L 1656 2988 
z
" transform="scale(0.015625)"/>
      <path id="DejaVuSans-Bold-69" d="M 538 3500 
L 1656 3500 
L 1656 0 
L 538 0 
L 538 3500 
z
M 538 4863 
L 1656 4863 
L 1656 3950 
L 538 3950 
L 538 4863 
z
" transform="scale(0.015625)"/>
      <path id="DejaVuSans-Bold-6f" d="M 2203 2784 
Q 1831 2784 1636 2517 
Q 1441 2250 1441 1747 
Q 1441 1244 1636 976 
Q 1831 709 2203 709 
Q 2569 709 2762 976 
Q 2956 1244 2956 1747 
Q 2956 2250 2762 2517 
Q 2569 2784 2203 2784 
z
M 2203 3584 
Q 3106 3584 3614 3096 
Q 4122 2609 4122 1747 
Q 4122 884 3614 396 
Q 3106 -91 2203 -91 
Q 1297 -91 786 396 
Q 275 884 275 1747 
Q 275 2609 786 3096 
Q 1297 3584 2203 3584 
z
" transform="scale(0.015625)"/>
      <path id="DejaVuSans-Bold-72" d="M 3138 2547 
Q 2991 2616 2845 2648 
Q 2700 2681 2553 2681 
Q 2122 2681 1889 2404 
Q 1656 2128 1656 1613 
L 1656 0 
L 538 0 
L 538 3500 
L 1656 3500 
L 1656 2925 
Q 1872 3269 2151 3426 
Q 2431 3584 2822 3584 
Q 2878 3584 2943 3579 
Q 3009 3575 3134 3559 
L 3138 2547 
z
" transform="scale(0.015625)"/>
      <path id="DejaVuSans-Bold-75" d="M 500 1363 
L 500 3500 
L 1625 3500 
L 1625 3150 
Q 1625 2866 1622 2436 
Q 1619 2006 1619 1863 
Q 1619 1441 1641 1255 
Q 1663 1069 1716 984 
Q 1784 875 1895 815 
Q 2006 756 2150 756 
Q 2500 756 2700 1025 
Q 2900 1294 2900 1772 
L 2900 3500 
L 4019 3500 
L 4019 0 
L 2900 0 
L 2900 506 
Q 2647 200 2364 54 
Q 2081 -91 1741 -91 
Q 1134 -91 817 281 
Q 500 653 500 1363 
z
" transform="scale(0.015625)"/>
      <path id="DejaVuSans-Bold-63" d="M 3366 3391 
L 3366 2478 
Q 3138 2634 2908 2709 
Q 2678 2784 2431 2784 
Q 1963 2784 1702 2511 
Q 1441 2238 1441 1747 
Q 1441 1256 1702 982 
Q 1963 709 2431 709 
Q 2694 709 2930 787 
Q 3166 866 3366 1019 
L 3366 103 
Q 3103 6 2833 -42 
Q 2563 -91 2291 -91 
Q 1344 -91 809 395 
Q 275 881 275 1747 
Q 275 2613 809 3098 
Q 1344 3584 2291 3584 
Q 2566 3584 2833 3536 
Q 3100 3488 3366 3391 
z
" transform="scale(0.015625)"/>
      <path id="DejaVuSans-Bold-79" d="M 78 3500 
L 1197 3500 
L 2138 1125 
L 2938 3500 
L 4056 3500 
L 2584 -331 
Q 2363 -916 2067 -1148 
Q 1772 -1381 1288 -1381 
L 641 -1381 
L 641 -647 
L 991 -647 
Q 1275 -647 1404 -556 
Q 1534 -466 1606 -231 
L 1638 -134 
L 78 3500 
z
" transform="scale(0.015625)"/>
      <path id="DejaVuSans-Bold-6d" d="M 3781 2919 
Q 3994 3244 4286 3414 
Q 4578 3584 4928 3584 
Q 5531 3584 5847 3212 
Q 6163 2841 6163 2131 
L 6163 0 
L 5038 0 
L 5038 1825 
Q 5041 1866 5042 1909 
Q 5044 1953 5044 2034 
Q 5044 2406 4934 2573 
Q 4825 2741 4581 2741 
Q 4263 2741 4089 2478 
Q 3916 2216 3909 1719 
L 3909 0 
L 2784 0 
L 2784 1825 
Q 2784 2406 2684 2573 
Q 2584 2741 2328 2741 
Q 2006 2741 1831 2477 
Q 1656 2213 1656 1722 
L 1656 0 
L 531 0 
L 531 3500 
L 1656 3500 
L 1656 2988 
Q 1863 3284 2130 3434 
Q 2397 3584 2719 3584 
Q 3081 3584 3359 3409 
Q 3638 3234 3781 2919 
z
" transform="scale(0.015625)"/>
     </defs>
     <use xlink:href="#DejaVuSans-Bold-42"/>
     <use xlink:href="#DejaVuSans-Bold-142" transform="translate(76.220703 0)"/>
     <use xlink:href="#DejaVuSans-Bold-105" transform="translate(113.330078 0)"/>
     <use xlink:href="#DejaVuSans-Bold-64" transform="translate(180.810547 0)"/>
     <use xlink:href="#DejaVuSans-Bold-20" transform="translate(252.392578 0)"/>
     <use xlink:href="#DejaVuSans-Bold-6e" transform="translate(287.207031 0)"/>
     <use xlink:href="#DejaVuSans-Bold-61" transform="translate(358.398438 0)"/>
     <use xlink:href="#DejaVuSans-Bold-20" transform="translate(425.878906 0)"/>
     <use xlink:href="#DejaVuSans-Bold-7a" transform="translate(460.693359 0)"/>
     <use xlink:href="#DejaVuSans-Bold-62" transform="translate(518.896484 0)"/>
     <use xlink:href="#DejaVuSans-Bold-69" transform="translate(590.478516 0)"/>
     <use xlink:href="#DejaVuSans-Bold-6f" transform="translate(624.755859 0)"/>
     <use xlink:href="#DejaVuSans-Bold-72" transform="translate(693.457031 0)"/>
     <use xlink:href="#DejaVuSans-Bold-7a" transform="translate(742.773438 0)"/>
     <use xlink:href="#DejaVuSans-Bold-65" transform="translate(800.976562 0)"/>
     <use xlink:href="#DejaVuSans-Bold-20" transform="translate(868.798828 0)"/>
     <use xlink:href="#DejaVuSans-Bold-75" transform="translate(903.613281 0)"/>
     <use xlink:href="#DejaVuSans-Bold-63" transform="translate(974.804688 0)"/>
     <use xlink:href="#DejaVuSans-Bold-7a" transform="translate(1034.082031 0)"/>
     <use xlink:href="#DejaVuSans-Bold-105" transform="translate(1092.285156 0)"/>
     <use xlink:href="#DejaVuSans-Bold-63" transform="translate(1159.765625 0)"/>
     <use xlink:href="#DejaVuSans-Bold-79" transform="translate(1219.042969 0)"/>
     <use xlink:href="#DejaVuSans-Bold-6d" transform="translate(1284.228516 0)"/>
    </g>
   </g>
   <g id="legend_1">
    <g id="patch_7">
     <path d="M 690.8445 86.185 
L 833.2845 86.185 
Q 835.6845 86.185 835.6845 83.785 
L 835.6845 49.7575 
Q 835.6845 47.3575 833.2845 47.3575 
L 690.8445 47.3575 
Q 688.4445 47.3575 688.4445 49.7575 
L 688.4445 83.785 
Q 688.4445 86.185 690.8445 86.185 
z
" style="fill: #4d4d4d; opacity: 0.5; stroke: #4d4d4d; stroke-width: 0.8; stroke-linejoin: miter"/>
    </g>
    <g id="patch_8">
     <path d="M 688.8445 84.185 
L 831.2845 84.185 
Q 833.6845 84.185 833.6845 81.785 
L 833.6845 47.7575 
Q 833.6845 45.3575 831.2845 45.3575 
L 688.8445 45.3575 
Q 686.4445 45.3575 686.4445 47.7575 
L 686.4445 81.785 
Q 686.4445 84.185 688.8445 84.185 
z
" style="fill: #ffffff; stroke: #cccccc; stroke-width: 0.8; stroke-linejoin: miter"/>
    </g>
    <g id="line2d_14">
     <path d="M 691.2445 55.075625 
L 703.2445 55.075625 
L 715.2445 55.075625 
" style="fill: none; stroke: #f77189; stroke-width: 2.5; stroke-linecap: round"/>
    </g>
    <g id="text_16">
     <!-- sfnnv9 -->
     <g style="fill: #262626" transform="translate(724.8445 59.275625) scale(0.12 -0.12)">
      <defs>
       <path id="DejaVuSans-73" d="M 2834 3397 
L 2834 2853 
Q 2591 2978 2328 3040 
Q 2066 3103 1784 3103 
Q 1356 3103 1142 2972 
Q 928 2841 928 2578 
Q 928 2378 1081 2264 
Q 1234 2150 1697 2047 
L 1894 2003 
Q 2506 1872 2764 1633 
Q 3022 1394 3022 966 
Q 3022 478 2636 193 
Q 2250 -91 1575 -91 
Q 1294 -91 989 -36 
Q 684 19 347 128 
L 347 722 
Q 666 556 975 473 
Q 1284 391 1588 391 
Q 1994 391 2212 530 
Q 2431 669 2431 922 
Q 2431 1156 2273 1281 
Q 2116 1406 1581 1522 
L 1381 1569 
Q 847 1681 609 1914 
Q 372 2147 372 2553 
Q 372 3047 722 3315 
Q 1072 3584 1716 3584 
Q 2034 3584 2315 3537 
Q 2597 3491 2834 3397 
z
" transform="scale(0.015625)"/>
       <path id="DejaVuSans-66" d="M 2375 4863 
L 2375 4384 
L 1825 4384 
Q 1516 4384 1395 4259 
Q 1275 4134 1275 3809 
L 1275 3500 
L 2222 3500 
L 2222 3053 
L 1275 3053 
L 1275 0 
L 697 0 
L 697 3053 
L 147 3053 
L 147 3500 
L 697 3500 
L 697 3744 
Q 697 4328 969 4595 
Q 1241 4863 1831 4863 
L 2375 4863 
z
" transform="scale(0.015625)"/>
       <path id="DejaVuSans-6e" d="M 3513 2113 
L 3513 0 
L 2938 0 
L 2938 2094 
Q 2938 2591 2744 2837 
Q 2550 3084 2163 3084 
Q 1697 3084 1428 2787 
Q 1159 2491 1159 1978 
L 1159 0 
L 581 0 
L 581 3500 
L 1159 3500 
L 1159 2956 
Q 1366 3272 1645 3428 
Q 1925 3584 2291 3584 
Q 2894 3584 3203 3211 
Q 3513 2838 3513 2113 
z
" transform="scale(0.015625)"/>
       <path id="DejaVuSans-76" d="M 191 3500 
L 800 3500 
L 1894 563 
L 2988 3500 
L 3597 3500 
L 2284 0 
L 1503 0 
L 191 3500 
z
" transform="scale(0.015625)"/>
       <path id="DejaVuSans-39" d="M 703 97 
L 703 672 
Q 941 559 1184 500 
Q 1428 441 1663 441 
Q 2288 441 2617 861 
Q 2947 1281 2994 2138 
Q 2813 1869 2534 1725 
Q 2256 1581 1919 1581 
Q 1219 1581 811 2004 
Q 403 2428 403 3163 
Q 403 3881 828 4315 
Q 1253 4750 1959 4750 
Q 2769 4750 3195 4129 
Q 3622 3509 3622 2328 
Q 3622 1225 3098 567 
Q 2575 -91 1691 -91 
Q 1453 -91 1209 -44 
Q 966 3 703 97 
z
M 1959 2075 
Q 2384 2075 2632 2365 
Q 2881 2656 2881 3163 
Q 2881 3666 2632 3958 
Q 2384 4250 1959 4250 
Q 1534 4250 1286 3958 
Q 1038 3666 1038 3163 
Q 1038 2656 1286 2365 
Q 1534 2075 1959 2075 
z
" transform="scale(0.015625)"/>
      </defs>
      <use xlink:href="#DejaVuSans-73"/>
      <use xlink:href="#DejaVuSans-66" transform="translate(52.099609 0)"/>
      <use xlink:href="#DejaVuSans-6e" transform="translate(87.304688 0)"/>
      <use xlink:href="#DejaVuSans-6e" transform="translate(150.683594 0)"/>
      <use xlink:href="#DejaVuSans-76" transform="translate(214.0625 0)"/>
      <use xlink:href="#DejaVuSans-39" transform="translate(273.242188 0)"/>
     </g>
    </g>
    <g id="line2d_15">
     <path d="M 691.2445 72.689375 
L 703.2445 72.689375 
L 715.2445 72.689375 
" style="fill: none; stroke: #36ada4; stroke-width: 2.5; stroke-linecap: round"/>
    </g>
    <g id="text_17">
     <!-- kan (3072/15/32) -->
     <g style="fill: #262626" transform="translate(724.8445 76.889375) scale(0.12 -0.12)">
      <defs>
       <path id="DejaVuSans-6b" d="M 581 4863 
L 1159 4863 
L 1159 1991 
L 2875 3500 
L 3609 3500 
L 1753 1863 
L 3688 0 
L 2938 0 
L 1159 1709 
L 1159 0 
L 581 0 
L 581 4863 
z
" transform="scale(0.015625)"/>
       <path id="DejaVuSans-61" d="M 2194 1759 
Q 1497 1759 1228 1600 
Q 959 1441 959 1056 
Q 959 750 1161 570 
Q 1363 391 1709 391 
Q 2188 391 2477 730 
Q 2766 1069 2766 1631 
L 2766 1759 
L 2194 1759 
z
M 3341 1997 
L 3341 0 
L 2766 0 
L 2766 531 
Q 2569 213 2275 61 
Q 1981 -91 1556 -91 
Q 1019 -91 701 211 
Q 384 513 384 1019 
Q 384 1609 779 1909 
Q 1175 2209 1959 2209 
L 2766 2209 
L 2766 2266 
Q 2766 2663 2505 2880 
Q 2244 3097 1772 3097 
Q 1472 3097 1187 3025 
Q 903 2953 641 2809 
L 641 3341 
Q 956 3463 1253 3523 
Q 1550 3584 1831 3584 
Q 2591 3584 2966 3190 
Q 3341 2797 3341 1997 
z
" transform="scale(0.015625)"/>
       <path id="DejaVuSans-20" transform="scale(0.015625)"/>
       <path id="DejaVuSans-28" d="M 1984 4856 
Q 1566 4138 1362 3434 
Q 1159 2731 1159 2009 
Q 1159 1288 1364 580 
Q 1569 -128 1984 -844 
L 1484 -844 
Q 1016 -109 783 600 
Q 550 1309 550 2009 
Q 550 2706 781 3412 
Q 1013 4119 1484 4856 
L 1984 4856 
z
" transform="scale(0.015625)"/>
       <path id="DejaVuSans-37" d="M 525 4666 
L 3525 4666 
L 3525 4397 
L 1831 0 
L 1172 0 
L 2766 4134 
L 525 4134 
L 525 4666 
z
" transform="scale(0.015625)"/>
       <path id="DejaVuSans-2f" d="M 1625 4666 
L 2156 4666 
L 531 -594 
L 0 -594 
L 1625 4666 
z
" transform="scale(0.015625)"/>
       <path id="DejaVuSans-29" d="M 513 4856 
L 1013 4856 
Q 1481 4119 1714 3412 
Q 1947 2706 1947 2009 
Q 1947 1309 1714 600 
Q 1481 -109 1013 -844 
L 513 -844 
Q 928 -128 1133 580 
Q 1338 1288 1338 2009 
Q 1338 2731 1133 3434 
Q 928 4138 513 4856 
z
" transform="scale(0.015625)"/>
      </defs>
      <use xlink:href="#DejaVuSans-6b"/>
      <use xlink:href="#DejaVuSans-61" transform="translate(56.160156 0)"/>
      <use xlink:href="#DejaVuSans-6e" transform="translate(117.439453 0)"/>
      <use xlink:href="#DejaVuSans-20" transform="translate(180.818359 0)"/>
      <use xlink:href="#DejaVuSans-28" transform="translate(212.605469 0)"/>
      <use xlink:href="#DejaVuSans-33" transform="translate(251.619141 0)"/>
      <use xlink:href="#DejaVuSans-30" transform="translate(315.242188 0)"/>
      <use xlink:href="#DejaVuSans-37" transform="translate(378.865234 0)"/>
      <use xlink:href="#DejaVuSans-32" transform="translate(442.488281 0)"/>
      <use xlink:href="#DejaVuSans-2f" transform="translate(506.111328 0)"/>
      <use xlink:href="#DejaVuSans-31" transform="translate(539.802734 0)"/>
      <use xlink:href="#DejaVuSans-35" transform="translate(603.425781 0)"/>
      <use xlink:href="#DejaVuSans-2f" transform="translate(667.048828 0)"/>
      <use xlink:href="#DejaVuSans-33" transform="translate(700.740234 0)"/>
      <use xlink:href="#DejaVuSans-32" transform="translate(764.363281 0)"/>
      <use xlink:href="#DejaVuSans-29" transform="translate(827.986328 0)"/>
     </g>
    </g>
   </g>
  </g>
 </g>
 <defs>
  <clipPath id="p22042fb1a6">
   <rect x="70.8385" y="39.3575" width="768.846" height="402.436"/>
  </clipPath>
 </defs>
</svg>
